<mxfile host="Electron" agent="Mozilla/5.0 (Macintosh; Intel Mac OS X 10_15_7) AppleWebKit/537.36 (KHTML, like Gecko) draw.io/27.0.9 Chrome/134.0.6998.205 Electron/35.4.0 Safari/537.36" version="27.0.9">
  <diagram id="81Ew6ep_INIa3zHuVZqw" name="Page-1">
    <mxGraphModel dx="578" dy="477" grid="1" gridSize="10" guides="1" tooltips="1" connect="1" arrows="1" fold="1" page="1" pageScale="1" pageWidth="827" pageHeight="1169" math="0" shadow="0">
      <root>
        <mxCell id="0" />
        <mxCell id="1" parent="0" />
        <mxCell id="TxX2gqwojOcQ7HW4MR1k-31" value="" style="rounded=1;whiteSpace=wrap;html=1;fontColor=#000000;dashed=1;labelBackgroundColor=none;fillColor=none;" parent="1" vertex="1">
          <mxGeometry x="930" y="130" width="710" height="790" as="geometry" />
        </mxCell>
        <mxCell id="TxX2gqwojOcQ7HW4MR1k-1" value="" style="sketch=0;pointerEvents=1;shadow=0;dashed=0;html=1;strokeColor=none;fillColor=#505050;labelPosition=center;verticalLabelPosition=bottom;verticalAlign=top;outlineConnect=0;align=center;shape=mxgraph.office.devices.tv;" parent="1" vertex="1">
          <mxGeometry x="228" y="50" width="275.33" height="210" as="geometry" />
        </mxCell>
        <mxCell id="TxX2gqwojOcQ7HW4MR1k-16" style="edgeStyle=orthogonalEdgeStyle;rounded=0;orthogonalLoop=1;jettySize=auto;html=1;entryX=0;entryY=0.75;entryDx=0;entryDy=0;startArrow=ERmany;startFill=0;exitX=1;exitY=0.5;exitDx=0;exitDy=0;" parent="1" source="qu0nNaPlwtPZptSTdnUQ-10" target="TxX2gqwojOcQ7HW4MR1k-25" edge="1">
          <mxGeometry relative="1" as="geometry">
            <mxPoint x="430" y="773" as="sourcePoint" />
            <mxPoint x="648" y="480" as="targetPoint" />
          </mxGeometry>
        </mxCell>
        <mxCell id="TxX2gqwojOcQ7HW4MR1k-21" value="HDMI" style="edgeLabel;html=1;align=center;verticalAlign=middle;resizable=0;points=[];" parent="TxX2gqwojOcQ7HW4MR1k-16" vertex="1" connectable="0">
          <mxGeometry x="0.1889" relative="1" as="geometry">
            <mxPoint x="-1" y="12" as="offset" />
          </mxGeometry>
        </mxCell>
        <mxCell id="TxX2gqwojOcQ7HW4MR1k-17" style="edgeStyle=orthogonalEdgeStyle;rounded=0;orthogonalLoop=1;jettySize=auto;html=1;startArrow=ERmany;startFill=0;" parent="1" source="TxX2gqwojOcQ7HW4MR1k-28" edge="1">
          <mxGeometry relative="1" as="geometry">
            <mxPoint x="690" y="659" as="sourcePoint" />
            <mxPoint x="570" y="400" as="targetPoint" />
          </mxGeometry>
        </mxCell>
        <mxCell id="TxX2gqwojOcQ7HW4MR1k-22" value="HDMI" style="edgeLabel;html=1;align=center;verticalAlign=middle;resizable=0;points=[];" parent="TxX2gqwojOcQ7HW4MR1k-17" vertex="1" connectable="0">
          <mxGeometry x="-0.0375" y="4" relative="1" as="geometry">
            <mxPoint x="94" y="17" as="offset" />
          </mxGeometry>
        </mxCell>
        <mxCell id="TxX2gqwojOcQ7HW4MR1k-14" value="&lt;div&gt;Lounge TV,&lt;/div&gt;&lt;div&gt;Muted&lt;br&gt;&lt;/div&gt;" style="text;strokeColor=none;fillColor=none;html=1;fontSize=24;fontStyle=1;verticalAlign=middle;align=center;" parent="1" vertex="1">
          <mxGeometry x="315.65999999999997" y="110" width="100" height="40" as="geometry" />
        </mxCell>
        <mxCell id="TxX2gqwojOcQ7HW4MR1k-26" style="edgeStyle=orthogonalEdgeStyle;rounded=0;orthogonalLoop=1;jettySize=auto;html=1;exitX=0;exitY=0.25;exitDx=0;exitDy=0;startArrow=ERmany;startFill=0;" parent="1" source="TxX2gqwojOcQ7HW4MR1k-25" target="TxX2gqwojOcQ7HW4MR1k-1" edge="1">
          <mxGeometry relative="1" as="geometry">
            <mxPoint x="365.65999999999985" y="360" as="targetPoint" />
          </mxGeometry>
        </mxCell>
        <mxCell id="TxX2gqwojOcQ7HW4MR1k-27" value="HDMI" style="edgeLabel;html=1;align=center;verticalAlign=middle;resizable=0;points=[];" parent="TxX2gqwojOcQ7HW4MR1k-26" vertex="1" connectable="0">
          <mxGeometry x="-0.0118" y="-2" relative="1" as="geometry">
            <mxPoint x="122" y="98" as="offset" />
          </mxGeometry>
        </mxCell>
        <mxCell id="TxX2gqwojOcQ7HW4MR1k-29" value="USB3.0" style="edgeStyle=orthogonalEdgeStyle;rounded=0;orthogonalLoop=1;jettySize=auto;html=1;exitX=1;exitY=0.5;exitDx=0;exitDy=0;startArrow=classic;startFill=1;" parent="1" source="TxX2gqwojOcQ7HW4MR1k-25" target="TxX2gqwojOcQ7HW4MR1k-28" edge="1">
          <mxGeometry relative="1" as="geometry">
            <mxPoint x="780" y="620" as="targetPoint" />
            <Array as="points">
              <mxPoint x="780" y="660" />
            </Array>
          </mxGeometry>
        </mxCell>
        <mxCell id="TxX2gqwojOcQ7HW4MR1k-25" value="&lt;div&gt;HDMI &lt;br&gt;&lt;/div&gt;&lt;div&gt;Capture Card&lt;/div&gt;" style="shape=process;whiteSpace=wrap;html=1;backgroundOutline=1;" parent="1" vertex="1">
          <mxGeometry x="548" y="630" width="120" height="60" as="geometry" />
        </mxCell>
        <mxCell id="TxX2gqwojOcQ7HW4MR1k-28" value="&lt;font color=&quot;#000000&quot;&gt;PC&lt;/font&gt;" style="fontColor=#0066CC;verticalAlign=top;verticalLabelPosition=bottom;labelPosition=center;align=center;html=1;outlineConnect=0;fillColor=#CCCCCC;strokeColor=#6881B3;gradientColor=none;gradientDirection=north;strokeWidth=2;shape=mxgraph.networks.pc;" parent="1" vertex="1">
          <mxGeometry x="700" y="540" width="100" height="70" as="geometry" />
        </mxCell>
        <mxCell id="TxX2gqwojOcQ7HW4MR1k-33" value="Software" style="text;html=1;align=center;verticalAlign=middle;resizable=0;points=[];autosize=1;strokeColor=none;fillColor=none;fontColor=#000000;fontSize=20;fontStyle=1" parent="1" vertex="1">
          <mxGeometry x="800" y="75.5" width="110" height="40" as="geometry" />
        </mxCell>
        <mxCell id="TxX2gqwojOcQ7HW4MR1k-69" value="Audio + Video" style="edgeStyle=orthogonalEdgeStyle;rounded=0;orthogonalLoop=1;jettySize=auto;html=1;fontColor=#000000;" parent="1" source="TxX2gqwojOcQ7HW4MR1k-36" target="TxX2gqwojOcQ7HW4MR1k-50" edge="1">
          <mxGeometry relative="1" as="geometry" />
        </mxCell>
        <mxCell id="TxX2gqwojOcQ7HW4MR1k-36" value="OBS Studio" style="shape=image;imageAspect=0;aspect=fixed;verticalLabelPosition=bottom;verticalAlign=top;dashed=1;fontColor=#000000;image=data:image/png,iVBORw0KGgoAAAANSUhEUgAAAQAAAAEACAYAAABccqhmAACDyUlEQVR4AezUIQ4AIBADQfj/o4tGYcl1moxBktyuJEApnwACAAgAIACAAAACAFQGwMZtX97vNmACUHDQn4TEBMAOO+ce1NSZ/nFB8CetQOQC4YKEO7mckBAMGkS0WuXSn6uyowWxXDodq+7USlGktFsX3IqglKKuM9Y/FHV0rOgyVqtUXB3aXe2uOjqislkJrRfcivUCzlirefZ93jEzMRs48ZiwBN/vzDPnpMM5VDjfz3N5zmBvCTCaq7u7u4+3t3e4QqFQ6nS6CRMnTnx90qRJb0xKS8vOysrKyc3NnZ9fUJCPysnJmZ+ZmZmTlpY2m3xNVmpq6tTx5CKpVKrw9PQcQ+41Gr//4IASEwMAy+pu/v7+Eq1WO3Hu3LnzS0tLy+vq6jYcOHBg/7Fjx77r6Oi41N3d/e/eB72/wAuqp6fnIbnXTb1e33b06NHWpqamxrVr136+bNmyFdnZ2bkajUYnEolCEToMCgwATHbO7h4eHj7EZBMKCgoW1NfXr28mMhgMV34lgkGiX4gIINoPHjx4qJYoLy/vbY7jkt3c3DyfAwhMDAAsw4eFhcWRkvwtYvYNJ0+e/Gtvb28POKnu3r1758SJE8dJxVBLqoWcgICACAYEMzEAMNP7+PiEzZkzJ2/z5s1b9Pp/tYMzyAiCdeHChfPr16//08yZM+d6eXmJ+/hZuZJgYgBwetO7WjM9lsfl5eUrT5069Tdqp5dUjx8/fnScqKSkZEV0THTC0KkMGACY8S2UlJSUSkrhzwydhivOmcUdf8OLRBUVFZ/KZLIka5sNBgIGAKfK9lFRUcpVq1ZVdXZ2dgwSnwu3qtH+hueDQVlZ2e9DQkJieH7WTIMHACzbjxw50ruwsPDdvxMNbG41OmkhwS8cJJI5yVsuLi4eg6EqYABgcrU0flxcXCIO8h4+fPgAXlIZHYyOe/fu3Vm3bl0dbkoYCBgABlou1ow/ffr0md8ROcJOxqGOCCMNQTp8+PARnU43lQ/MTI4AADO+O5b5pLc32NUeRqNd7tHT2wtdXV1w6fIlOHPmDCCfiGGg6c9NsHfvXti5cyc0NDTAtm0N0IDRsB12bN8Bu3btgsa9jfD1oa+htbUVTp8+DW0X2+D69etw//59ePLkiV0AYLQj6Nra2i7MmDEjZyBAwADASv0RixcvLr59+3a3vXKhUWBt8NOtn+DcuXNw5MgR2LZ1G1StroKSD0qgML8QZv1mFrw+ZSokj02GBE4FsjgZREdEgWSMBMJDwyE0KBRCxMEkQsyD/vcxIWMgShIF0lgpKBUJkJQ4Fl5Lew1mvDED8ubNh6VLlkJlxSrY8sUWOPjVVwgJhI1gOBhpvLiuXr36I76ByEDgCACwjD980aJFxXfu3Pn5f9Ewd93sgm9bW6nRV36yEgryC2Da1GmgTlBTswYHBkOAbwCNIHIeFhwGEeEREBsVC/Gx8SCLl4FCpgBOzoFSriRQSOgzlAolcDIFvQavjY2OhcjwSAgjYDB9H38ffxD7i0ESJiH342By2mTIzZkHZSvKYPPmL6ClpQV++PEHWo0MtG7cuHEtNze30OL3OfwlBQEDgADzDzcfKJGHqejWLZJuB1CktQDyWj2sWVMNRQVF1GBxMfEQFBBEzYdHNF98TBwxNgcqTkVhkEgjEWio8OiIUNPvpVKqECi0UkBAIBz8fPwhwC+QQkk3LgXmEShU/KECGhsbob29nVQJjwfyZ2hIT0+f1d/vlgGAAaDPLJGSkjKVPLSXB2Ilhj079tx1n9VBYUEh6JLH01Ldb7Q/BPqLaTaXx8vRdGhAm82ttmfYCAgKBpkCoiKiKaj8RL60vcD/5zfnvAmrP10NzUea4fbPtwdk2Ui2sf+Qy+VjrbQFLgwADACmch/NTyUWiyNIX/2No8t6MkeAQyTLf/zRR5CVkQUxkbHE8H4gJhk0OiIaS3Vzsws3udIUauFhfi9rYOABBLYW2EoEBQSDr7cvhRvOFYrfL4Yv93xJyvbrDgfB7t2793p5eQUOM4m3LWAAeNnKfdfKyso14ED1kkzf3NwMH5Z9CFMmT6EDN1+RL+3Z5VI5MbsaNCoNLbETFAloKvK5H6PbYGwVhulcYKh5wuZqQUUDOLkSB5L03y4mVcI47Xh473fvwb59+ygYhcrIvyF5smTJkuXm1cDQbwsYAHizfmpq6vQbRI7K+ufPn4Oa6hrISs+i2c/X24celQqOGEJjMgeaHwd3tNyfoEvFCby5wayZmz84DJWwUJrO1abPzwEIfigg3PC+ODPwFZHqxz8I0lLTSFX0MV1dPnHQEJF0du0cx2mHejXAAMDT67u7u3uS3fcecIB6enph/7798M7b79CJug8xPa7ZOBkxvVrzTGk/lhg9Piae9vtZmf9Phmd5MGH8BFApEtAgPGbnN3KCwFDxh+1VQz8wMMEPWwWsDEZ7jSbHCJjz27mwdetWuvJ0hOrr6zfh8zAUqwEGAJ6sn5GRMfvBgwc99t5SX7t+DTZu2Ajp09Ixo2Ffj+Y2PeTPZkA1lvsa8HrVmxq5uqoalpeUQsq4FJz6WxrsxcytSBASwiGhVPEAob/KQENbokC/QNom6JJ18MfKVXC5/bIj1oZdWq02zUo14MIAMLSyPgZqxPbt23fZu9LX6/8JlRWVoE3SAs324lBqII1Ftjf182M1WoggWW7E8BFQvGQpnDh+Aj4oLoExoRKIjoihrQG/2fnNrTQ7Cg1+QFiCgh8ItsDANA/BlafIUwTSOCksfX8pffnI3qqpqfncAgIYLgwAzm9+N9OHxMTElJtE9u0n26G8vBxfiMGHFFd2pmGe1Wk9GltDwtPDkz7Yf2k5Bp2GTshMz4JXR46ipqIlv1WjW5qdx9xyJQmz8+cJhdm1NJQYtgGCt1Lop12wDgIauEkQeY6m4Fy4YCF8//0psPPvUi+RSKTmz47zQoABwNXc/KWlpZ/YM+N3GDpwWEVLVTR+dGQ0PqR9Gh8f7iR1EsTHSsF12HCYPTP76bvsF3E2QKsGjTqp38xu3eT85uYEhPm15kfLsA4ESzD0CYR+Zgf/XRVoMNRJWAngnIAOUhe+uwjOnj0L9lRRUdFC87/AbGoJGACcr+THQd8ostdvsZf1b3XfgqqqKlr2ikaJaLmuUT9rfLWF8TFw0BcsDgGPEa/Aupp1gGpqaiItwP/hGtBkfj7DCzA4B5xMSYITEEoa/KCwDJ4qoU8YqGxuEZKegkBEQBARHknap2K40nEF7KUdO3bsMTO9m3O0BAwALmbEHqZUKpO7ifjNzp/xH/36iEykt0HK+BQ0Pr7+apPx8RzNjVUCGr3lmxZAbdq4CVyGuUKUJBqv7dP0/Gbv39wKgcGZjnzBDwQMm2CgMg9b2gMVBQEdmHqN8gZ5vAyq11Tj3w0Ae0iv118JDQuLMZsL0JaAAcAJSv78/PwFQnf6luet37bC7FnZT1d5YUAn+mprxn92R296WcfD3QO0Gi0YOgyAqqutA1di/pjIGPo1thv+OUwutTiXKp43zK7tBxR8UBAAA6trxn5AgBBGEERKosDzFS9ITZlIXyqyk4wZGZmzLFsCBoDBZ35304fa2toNYAfdvNkFpcv/w955QElVZP9/yWGGYQgMGSRLVlEx6JozKsEsGHR1zVnEvK45KCpmF8SwBsWcM2IQMSgZCaAEUQJiICih/vV5vvrxuPtqbr2eVvhzqHPume6Z7p7u1/X93nzrgkhz16tdgtlvi3O29Pj4ovIu1uqVylemlTaqAmTde899pmK5ipHrsJkDv1/DB2rzdAB3lD9DRT5HIQkp4YSguwlZiYAga6P6jSOyPrrf0WbSpEl5Kebq37//pcl5EOsHCWwkgHIC/BXt6TSv5/xNJyrPnn56mOm+ZXdTs6AmgTuAj+bXgM9m5e8AwQK9kjnmqGOMW889+5ypVqU6RS48R9HyHtBLkHul49q3N80k4vlSciYFSQi6VaDHCVLjA7x2LZsxIDg76PZBzCsoMwkMHjz4EUkCGwlgHQf7HPjtQZglY8eOnWiUpQF/ji3kOfnkU+jEIzqPqY94fXxZpLN5DP4Kf6toTrERarfGfDWawiDEgd/rw0tTvlTAb6oDvEOuohJFCCmURgSODPwugj9WULpF0M0KpO3cggMPONCWZI/RTQF9QOmHzH4VJFBuIwGsA/A7n79ly5Ydbc/+gpxc/QT4X3jhhShgV7OwGLM6ae6rwGdjcp+oOeA/9aRTk8MsbYFQd7sRa/AaqqZXAC/ArYC8HdKhDJKRJDRLoWxWgSCBMGuA31NRiOV19113l3UcEW7FFHuiU0NHAvnPEGwkAD3Sj9hlD87cftmyZb/nMDvPiuvH/8VOsxkQTbtp3KCJBb6L7qd13jngC/BH0hX/3g7xON4kF/0A5P55XnbQ69ocoK4T2ZSfCimUZh10QCQZeIKHZSCCbnG/RWQNFBSZvkf0NbNnzzJlWSgcWzTULpgENhJA/sG/++6771vW4Zt06u21x16myJqJ7e2m1rV+vOFEwQ6PJ6ffu2dvw/r9tz846WE7cLOCJYVoxh4bWwe9AHyuYG9vOtj/yc/2SNvs4p6fnRjCLARJBIIMvETQNTciwBogkIuFR1Uj8xQV6189On0ppxjluVZgIwEo4K/AnR49evQpK/iZgtumVRv8fZfa0819AXyEyDNlvDTx2HMBos3E//n2m2+pF8DvZ+OmROwV0KsmfAzwtutKQghBIwNpFfjdA7814IhAJQEsO0ieoizGqzFMVYSCsq3ff/99pT32bYd8ksBGAlDAb0+WPSwI7PL+qj9+s2LlCnOJncQTTadp2tw25mwFAXjBL819V5PPJtzcbqh61nVo1bxVBHjWD9//YFjHH/cP4gG8hgp6RNHymcG+aT5EvJ5uNSgWQzAZ6BYBWjxXtwCXoF2bdhA3044ZRFKmuUP2jIKd8+QObCQABfyH5hLkd5qfXiBm0xUV+E1+Tes78PN7NDxR5rffetuNpzasl156mZRfVKXW2QP8QNM+d5Db/50nUQjCLzoZKEQgXYOOmkUgrQHE7xLwuBoFNaMhpjaLZMqyttlmm7/nkQQ2EoBM9e233369VLCX6u+PoZSXslw2BhF/B36PyS878UR3nA1Ylbcanmk/rB9++MH8tPgns+L3FXbk1+5E/XmsH/jtkLIAXgd6u/yITgy5E0JwrEBYBJ5AYbg14FwC9kHd2taKs2cnvPrqq6VsJvW481W243S7EBLYSADh4K/MnV122WXPsvj7r7/xejTnvqR2icjtC/ArWt9tNp5TpWJVc1Dvgwzrl59/MbNnzTasIYMfwPQXwFe0fdsOoaAvHeSt5X2kXR4kkBjaIjoZaPGCYNegIyLdgnBrwGUJcAOb2IpPMkH2jMecT2uyQ2aWt23bdnM3eyLHOoGNBJAEf9euXbexlVyrcwX/o48+ahrXb0yKjy/asr7X5E8HvgA/f+MADsx/5/fPnj3H/GRJ4NdffqUWnXZVa/p3Fqa+ou1VwKeBcG2gtv2zxEMMKilkJ4PAdGJa+lCUGIsgoeYSsDcYZ06q8Morr/KTgLITbf/Zj02aNGkV7+MqgSSwkQBEeW8V7tiTYFvZAM3iTOBPlH3ecccdBOkYIsEXLEz+bODvHAsbspIt833wgQfjMWDfmTlWWPyOv5Wm8dsrwFc0fDjgW7XNj7R2P0MIAcmRDELcA90tQDyxgVSXQAQH/2gzLrQDW84++5ycLYFp06Z9W1hYWFtYAhsJIGCVd5q/evXqtaZOnfpNrpr/mmuujYd1tAH84f6+1PqJOn0eV6VStWhgJcseF2a+s+BfsGChWblipemx7/5sHjapHsWXml4CXoIrA9Db5FM0cvCTgiSDIDdBdw2CSUCJDaTHBQgO8noFVQvMccceh28v9laQOcBk409RaIIENhJACPhZw4cP/yhLri/Z8MEZejULa7LhiPQr/r6u9dlY3KeclFn2o0ePMSz8fqf9X3v1dYpM2PjhZj5gCDPrw8He0kmbvEk4MbRDBCH4yUAnAiGiYclDBJC1RgLCJZAk0C16bEG1QnPkEUeS75ckEHogybOigajcRgLwm/6V3B3befWoCVsS/IzqAvyYcqng30wFv+jSizcWj6OP/7JLLjMsgG+HykYWAIvDLSr8rQKbUQd+m9KAnwQ84ge8BHpr99MnLZDW4vet+b3/OZmIQRKCx23wuQg6EShuQaBL0NnjEogMAb8rtNmcww49zPz222+CBLij1w1cffXVN4mZFeU2EkApJb4DBgy4LMuw7mR88LLLLpM5/vBgnzT5EzX73OdEXO7Pnfu93Qy/mzk28Af4l/y6xMyY8Q2vQbCR/50B+B6f3qvh2wjAp0nrGNR+acXPcEm8pkoMPjLwuAp5JgJhDXhcAm9cYHMfCVSLSIDJUDlZAgyoSU8PbiQAl+6rEpf49s7m86/R/ERu6d/PCv4uCvgRfk9Dz60Db4sLfmYD/ogEWI/Ymv+qlarqwNdBLzWqAFgY0FsFSSt5WxMPOfgIwWMZtEYkEXjcA6XSMJgEED8JIEEkcFTffoBfkEAYGdiS4R2TmYGNBCAi/ratd9OlS5f+Fgz+hOYfeMtAZvWxYXLV/LI/3zXscJtjrwkOEewj1+u0fySsk048ieg/m1IDvt+v94BemvBeoG+SlFaqtETcbf3xXkJoVSYyaOck3CLQrAHVJdBJQGYIIAH+RunwSf88SQSdwyhg5syZc2vUqFFXIYENlAD0oF/5zz77bHQu0f4HH3yQE3jYWNk1f0dE+PtO4o3E7/H9b7n5FsOaPXON9qfyb9bMWdGBIJxk094LfEQAPwz0fu2eAvaWqrRcc7s50lL+rRSRhODEYyG09BGCzyqQQUM9WOgPEsoAod8SQEIsgS0tCfAcAoMXXXRRTinCF1988XUlKLghEoA+wffuu+8ekmV6p7voL77wAsdOs5FJ9QWAv6sAf4rWF7X7nG/P/ZnfzjTLly2PgO+E9erLr0aHW7Zu1VaCn42sAV8BvTDZQwEPsFOkhbzt/7uUQFKQhKBYBppFwDXM0RrQ4wI6CSAyRchr0/9x0003GVZWd+DSSy+9SokHbOAEIPz+I4444lgN8IiM+I8aNYpNRglnGPg7IWmRfjGgIzGMg9/j+1804CKX9nPgd6W/nOnnev795r4OfI//rgLeA25Fmsn7LRK/a8FPKeGkIMlAjxl4iaBdrkSQOTgYTgJYmbw3ziSgyjSXZUvb946xUFVWCm74BJDw+5mqYif6rDCBa6UFf+xPAXpO1JVFPgFmfxdd88dapJXdnPTzf/ThR2sRAD9xA4hDHHv0sbYvoEoZgC/AL0x7BfACqAA5XDYJfyyvrZGCcCPSLQPpImQjAp0EFEtAuAS5WQK0E3NNGjdsbEaMGJHqCqxW4gG20E3GAzZ8ApD5/nfeeef9rLl+hm70tEMeqbfvZtnY1faHaH4J/k6lgJ/bBVUKzCF9Dom+3O9t+s+BH6GHfK6tA9hph51M7eI6IrIfBnyh8XXQC/GA2iOb2PMIk7eR6LaV5E8pPqLQCcFDBsIqUIigNeINFCopw47hcYGMMQFIgKKwLtat/OabGTIrFXL60FPyHMINmwCE6X/++edflkvQ7+wzzybXz0EcRGfzqfnFsM0Odq5/JXP/vfcbFsE+B35k2dKl5rNPP2ejcnZAAviILNZRTH2AEQZ6DewA+08TnRR8hJBGBNI9kK5BKdZAGyR3l0C3BMJJAFdg3332ddWCZlUGEjjqqKP+4VwBEQ/YIAmgPB807vDb2uSw7r33Xua98yXS0itq+8PBL/19RDbwNGvcLCrVnThxkgX7Mgf8iAgQ1gvPv8DEWTZ0DP60op1kxR1SCvBT/fhSAN80APBN/vd28yZW+InwOyQnQojEQwihRICEWwPe2EBbJNwlUC2BkGKhzSIhM2AV01nC/g+aK7isYcOGLYQrsAESgDD9aZQIHexh5yy45go2HX6mS/cptf16tN8Hfu5T2HNU36MMC3/fgd8J6z570k/VytXZqE5T6QE+P/Al6CXwdaAD7CBpzs8MktFC8LkKIlYgLAKVCEKtgaxxAdlDIElA9g7IGgFehz6QIUOGZD53YNhTw16QrsAGQwDC9K8am/4XZ/X7OeNzx+13tLn2Bhb8W8mWXj/4kYzgd4L5zyGezvxPCilB1tVXXU39vzD5vcD3mfmKeV866P0A16VZYyv8RNzvG3sfr5CCSgbp7kEWIuD66pmCP80dcF2EkgRID7rv7IsvvohdgfD6gL59+x4nswIbCgHIar8OK1asWK2xpJzSesrJp9DgIw7lDAU/Eg5+NgxfJht+1MhR0YgvCX5nAZx3znmkAKXWl5F9XeMHa3sN6IDaJ83kbX4ivscJyZkQUqyCcCLQrQEvCSDZ3AGlYlCLBzBhevdddzfLli3NVCQ0b968RUVFRQ1c6/AGQwCy4Oe55559WUv5y1JfKv2Y4MtIbX/QTy/vDdL88WYhw7DXHnubHxf9aOb9MG8t8CO4AxDDiSf8k/MApNbPBnzh14eDHq3tAXqKNEXk/Ubx/Ubub7pIQvCSQSohSIsACbcG/LGBQEugrUYCvmIhRwClkQDSLeoZGND/gswHj9liuMGOAPSA4HpOAEL7V+NO7969j1QviTD9J06cwCgtxnfj92vpPg38iAB/et9+RWv+n3v2uWvM/2/XgJ8xYBAAVYH9juxHDUAMfr+fT/Aru8b3gN6jxZ0Aar80dT+FeB6XJpIMdELQLIK0NKJiDSgBwgyWQEeFBLo48WQGZDyAZrS6tetR9pu5VHj77bffTbgC6zMBhNf6ly9fvmDKlCnTs6b8jjjsCFOrZu0E+H2mv6L5kVLN/jUE0M5KVTv1Z/D9/zEsB3wHfoQZgLQBH3rwYXZCUFU/+DWt3xTRtb1fw5cGdCENm5omydtJ8TxeI4pmiIcQ8kEEfmvAly4UwcFcYgKyYlAMHPVlBpJjxRrZmZFbd9vazF+wIEt9AEVFn8hegfWYAPTAn9P+1D+bwOWCJ/fec681xWtz0dOLfTo77S9LfKXmR3Sz3zXysPE4Gfi94e9h5kvwOwsgGgB6cJ9DsABCtb5f4zcJ0faIDvYmSEOfNHE//X/zSzqxeAghdyKQGYNWSJlcAtUS0MuGZcmw2jPAcNGzSA1mXMcff/zJMYaq6a7A+kgAQvvbPGcb20L7W5aBnhMnTeSLYHNwMVW/v4sTRfN3VMCPMPijmw3oTJ0yNYoBSPB/M+ObiAAiC8DOBqwMAeha32/qS22fBnwv4D0gF9IYcbcbxLcbIOJ+/HfxfC9x5EAEiEoEijUgSEAJDrbJQgKISA86CQoKrnEFeD1cgZdffjmTKzB79uy5VatWlQNF10MC0AN/VbJ0+okTdQnECb8f8Xb3Kem+JPiF3y/m80Xnye9/YNTqS6mvBD9CXGCpJYAjD+9r04WV/YE+v9Z3IAjS9gL0OuAb+KSxkCbidiki/08gGfiJINwtkEFCnQTyawnIoGBIPADFRR/JTjvuZH799ddMJHD55ZdfI62A9ZAA9Iq/Ll26dM+a8x82bBgHNBD1l6Z/WqWfAL8S9JPgTxJAHDgC0Kedcprz/yX4kej+b8t/MyfY8/8q/q2ix+QPNPelf58C/CalgV4HuhTroyLcjn+62+JxGjnoZJA7EUgSUF0CgoNltgSU9KCIByiuAFWCnBBFvYinwdVfIVhSUtLSWQHrPQFI7e/MfzsV9enADn/DWrRokdl1p10Jonii/psF+P1IGPjlZF42Cmf8uy8sAn4S/NNnmBlWuM0sQvoS7EdOgh8fNlDrK8D3gl4HPKAOl0bqYxo7EaSgkYG0CrIRgXQJEEkCiEYCBAb1FKFMD+pBQb0+AFeA99OyRSuOpss0RejGG2+8Q/YJrNcEILX/tttuu2toWaSzjK6/7no7y7+WY1B/nX+nQNNfBv0k+EUPPxuHQz3vixuAvp2xBvwzkJgApk+bYVhXXH4FF0qa/KrWzwH4fsCnAtovDRFul3A/VCRJ+K2EJogkgiQZeFKJOglIl0DWDGhpwmwk0NFJHlwBGoaOPeZYk2VRMNesWbNOsk9gvSUAqf2feeaZl/SiH8eI5Pwnorn5cqn4U6r9RJNPh/RiHwd+zex3I7vYRBwm8vRTT/O+1oB/ehL8yPTo/d856C4shuQGVbS+Any/tlc0fArIS/In2QmhCaK7B5msAX9cQDYVkZb1Zwf8vQMd2obHA7o40V0BMlEiIBiWFhw4cOA90gpYLwlAan97VPKuJuM6+6yzYUoJfkSJ+gvwe01/D/iRuK6cjdbQ9ni/8fobzIGPzX4B/pgAfv9tBUSBj8eGVk1+qfWzAR//3AN6L9gbeqWBu13PSsptISopSHfBTwSI3y3I4BIoGQJPYLC1TgIyHpAPVwArgMGy++2znx1qs9IELlqMV9nj8TpKK2D9IwAR+X/ssceGZSj6odOPL5IvQ5T7atV+Sr6/ncf0F3P7XCsvG5SN9eEHH5LmA/RS80cyber0KEvw8Ycfs1n5cgX4/b6+1Pqqxk8BvQZ2os9+aYBw2/1URZJDMBk4EpBEEG4NZCeBFn53QDYRlc0VkCTgbxhiPxO/wr0dOvRBt/mDioVvuOGG22VGYL0iADnmq0OHDt1NxnXiP05kqg7aXwn8+ar9xFCPQNNfju7CdOZvn3/2ufnpp59TND/gR6ZFLcLf2BhB9623YVy0BH9mrS+Br2l6HfANvFKfn3XFfb+I1/WSgYgr6BaBiw/o1oBeLyBIQLEEIACdBMJdAb1AiOPGsOJ23mmXNWlBfXCA3Yc//VqnTt1NRF3AuicAqf1d1d+gQYPuV8N+Ce3/9tvv8CVTl0/azwVP8mD66+BHkoM8AAKvNWb0WIqAvOBH+N3SJUvN4YcezsXym/yKr98YkcB3Aug9wNcAD8DrZ5L6sYjfa4TgIwNBBOFugT9AGB4TkClCRwBISFAQAhAkoLgCSkAwVmybMzeAKtdMdQEXX3zxv2OsVRdWwDomAFH1V69evVY2h7k0U+njccebOrXqwpCZc/4p1X6i0q+DP+gnwE9NOfUHsPn4cePNIjvzb/r0dPBPnYJMNax/X/7vmABaqODPpvUVbS9A6Qd0gNTRHtPAibMcnOiWQSgRcF1SYwOCBBDZXRhOAqJGQC8S0qsE2Y9hAUHcWz4jxUE///STCV3ffPPN7AoVKrjqwErrBQGImv/q3Lngggv+lcX3t0NB+SLR/t4+f+90Hx/4M5j+copPPUsAvP6E8ePNwgWLBPiRNeBHflv2m3lm2DOmepUC0l8S/H6TPxPwvZpeB3ydMopOCJIMJBEoFoHiEmgkIC0BvWJQDwqqrkBaPEAGBEuxAqwQC7jv3vukZawNDRE9AuueAOSor6LJkydPD+33Z5180smmTuT7b5k18OcngGDwWxFTfErspncuwMKFi/4APyLBj0yeGpUKfz1xMu+DbIAP/H6tL4GPSOBL0CeArwG+pIyik4K0DCQRSNdABAqT1oAIECokgIjZhAoJKEFBb32A4grkYgXwmXffdQ+zZOmS4LkBw98b/mHCAkDKrXsCSHT89erVq1+WIQgjR46EgbngMfgRkfbzDPZUwO+N+ku/X07yYVO3i4KAXxADSAU/wEemTJ7CT5sO/J25AFwwNqcC/jCt30CA36/tNcCXmJLauYpGCj7LQCcC3RqQWYKgmIBKAno8oF2YK4BkDAjKjABB7/8+8t/gYCBr66233l3MC1h3BCBTf88+++wrJsO6cMCFUbtvt8y+v6z190f9N/Wb/nJkN5uDzUkpL2lA66P97NX8gB+ZPGlyNLnonrvu4YLRBaeCv5EEf0npWj8z6FPAXC+r+EhBJ4MQIlBiA0pwUFoCvsCgWiOQe2pQDhDp7A0IdvVaAaSO+/TqY7Ksu+66a4gLBooBouuEABKz/lp1MxnW15O/ptafL0WJ/Evtr5v+SFbT3/mIbLoGUSHQm7YOYOkfQT/AjyTBj3xtCeDryeaHuT+YcWPGstHoJHTNO0qUX2r9cOBL0IeBvZ6pVyuj6KQQRAQyRtAQ8VgDOgnoloAvPajHA7SsQLgVQH9KV8UK4PEogzfeeCPYbJ4/f/4ie8JwM5ESXDcEkAz+XXjhhVeaDOvWgbdiAgUP+PSb/pIAJPjbi2o/AX4xyosNVVRY01b4PYNpDwGUCn4sgK8nfW1Hl6/kiDAuGhuTTSv9fWnyh2t9HfhBYK8bKl5CQDxkkGIVhFsDfhJorJGAt05AWgFISKWgtAK8JCAIQJJAWCwAC5iBt1nW0UcffboeDMwLAejBPxcDGD169HgTuBb/tJiSSL5cLkIM/tLz/p0DfX8CNnrUXxBAYpoPG4cJP/+57z9m1cpVwu//X/AjkyZOisqGn3ryKVPub+XZ0D7w+yP8Dhwq8H2gV8Be7KSuLrUQhRRqI9mJoAESQgJIoCUgi4Xy7wposwOUjEBnvxWANcrz6YMJXPQTvOVKg3U3IE8EoHT97WMyrOeffx4TmQsVNuknvOhHq/X3g5/KsXiYB9fsmquuMSzp9zvwJ7U/QrZg4YKF5u87/J3ns0F18Hu0vl/jC+DXQvzavTSQ13E/3W1F/GTgswrCrYEgEoiJwJMdUNKDuiuQHyvAHwtIIwBHAjSf3XzTzSbLatGiRTfZH5BvAlCDf878v/nmm+8yGdZpp55G4Y9S869H/tW0nwZ+RBzY4Qjg9FPPMCtXrDTTBPiF6R/LJFs3MCHy3QbdPojna+B3GlAAX4I/I/AlyIOkjv4YjQz8ROC3BqRLkJIlEGnC9BRhY50EdFdAdg3mywrQqwPBAJbw3nvu7VKCQevMM8+8RFQG/uUE4AIQtb7++uugab9u1h8n+3DRmZaip/5k3l+J/Cu1/j7T32l/hJHgPQ/oZRb/uJhOQB/4neACIEwP4vRg3rt1BcqxUQX4pb8vfX0N+PX8wPeBu2YeRCEDlQjqCCIQ1oB0CWSGoLGXBPR4gKgPkP0CgVYAEmwFIGpdgJsfiALkMRDdq6++akLXe++997HDoVYTkH8CSBzztcMOO+xvwhc10GwILkCp2l8SQD58fwH+VO3PJqlZUDMqTIoKfebMTfP7BfiRiWbc2HGRFTDwloFcvHDNHwZ+AXwHQh30tXMWnRBk3EASgbQG6uskIC0Bfsdj+H1KTEDEAxBBAp6JQp6AIPtELxPWWoblzIBUAhDBwPPOPc9kWW3atNlGugH5JwDF/L/++uvvCJ5wsnKF6XtEXyrZgs1/cayX8P3VtF9MAP7AnwQ//iKbEUYeMXwELb8q+JGJEyYi0fyA+fYkoS0278YFtL5rUx380uQvDfjFiAB9TaQUwBfVzk1qIoIQVCKo50RaA36XQJBAQyQGO7nyCn8rj0XF9RRSzlSrXB3Sg2xDXQG9QChzn4AyOaiTFSUlyPvabtvtzXdz55rQdcopp1wksgF/GQFUjkmg0M45Cw5ffvbZZ4CZCxo28CP3qj898OchAHcmIFN+hgweEmUCIuBL03/i1xL8ZsKECWbsmLGMcjKPPPwIFzACQiMR6fdG+TWtLzV+EowK4GtlF/Eaggx0IvBbA3WENZCSIYAAsCo4oPWySy4zTz0xzNxy0y3RCDbmMPY9vK89um0vu4e6AX6OZ3PEYEmhgOe7ZiEPCeSYFlR6BOQQ0dBgIL+rX6++eeqpp0zoeumll952VYHSDcgHAajFPx07dtzZZFi2TdjU083/0OCfAn4fAfhMf2TNSC+u2/nnnm/MKmNsjMPr9wN8JwQCEciBicG9evaKA4JNdc0PMIKBj6RoexXwtUytGiESTgaCCBS3QLoEfksA7c+167FvD8MiILtkydIo3bp82bLIMvt+7vfRdzDivRER4f77X1faMe1HWutyS1punZXAe4EAHMHLAiE9LahnBPISDKQu5swzzjShy561scx238ppQXkkAMX8P/XUUy8NH3D4u+lr6+X5cqNR3yL41zWb9kdy0v6I0/4tJQEkRnphAeyz176k9kjxqaa/A//4cdYKsI1Ei2wfwReff8mJxva1KuHL+jV/Nq0vgO8FvRfgxWmikYIkg3AiEC4BUlqqsAEukw3EVoyu3ReffWnbsn/EsuLaIvZ6T+DaR+nZmd/MpDrOLFu6DGsNUETFW6++/Kq59uprTa8De9vy7ObOOuD1AXwpBIAosQClXTiXlCB44P1sv90O5rvvvjOh69BDD/2n5gbkmwAq8c/i2v83Qrv+GIm8hWU5Lqj/iC8R/OsQrP2VQR9tVN9fDvRkw+JHjvrkU7Ng/gKp/SX4EwSAjDejvxoT9QjcesutXEgAAfnp4A8EPpICfA3sQopj0R6XJAJBBl4iUFwCjyXANeJ5XLOB9tpxDbmW48aO57paWXOtcbncd8D3QTENrhqHtvzy8y+GxfFtn3/6uRl02x2WDHpFgzl57cJqhXz37IUMsQAk29CQMAKILOLo78SeXnzhBRVQbt1zzz0Pa70BeSEAaf5Xr169lT3T/EcTuIY+MJTUDh9cN//DB37kGPnnC/drf4Q4ANfu/nvuN6tXrmaDaaa/Az9iNdY4NqM1V38zPQ+MXAGafkLMfh38Evg1kFJAX1icu4jXUqwCjzXgtwQECRAv4VrZa9bTnrG/nGuI9ncEIEggSQDIJGStOA1WAlYcCyvhw/c/NJdcdAl7Lfo/lSpUIvDLHhEEgIjBIZ7DRrMQgGYFYNFdcvElwQQwfvz4yfZzFAN+2RuQXwIQrb+77LLLISbDOuP0M/jSyf2HE4AX/EkC0Dv+wrX/2vXkXLvjjjmeA0KDTH9HAGxWUoJffTna/PD9PMaKcbx5TAKNM4BfAT6SBvzCtUFfM0cpFqIRgU4CiNcS4NpwjbhWDGKx1+4HriHXMhZJAJIEJsWyxlpzAVzIANfg159/NaxZ9mzHu20H50477BQTQXS8G/tFsQKCCSBBAhBAmBtAWnNfWyb/65JfTehq3779TmJ0+J9EAAn//5JLLrnJBK7Zc2ab3XbdHVAJ8CN622+O2t8K4Bfm/yaOAFqWov2R5nT2RWe9T5o0iQGgQaa/Az+CFfDlF19GcwPfeesdU/5v5a1UIM2lg9+Bx6v1pbYPBX1NXXRCkESgWQMyLiBJgGtCuo9rxLUi4EcMBe1vZQ0BIGlWgCQBSQCkcp3wu+9tByeLlu+Hhj5kdtz+jxLugmqFTnGwZ3AffeXBicrT0MpAnQB4Df7XJyM/MaHruOOOO0+4AfklAOH/V+W2bUgYbgLXm2++yYXkomTJ/TvzXxzyUcbUn2L6JwmAAhOu3wODH6DbL95kHu0P+B0BROBHxjJZyGqxr4hi2wajwXGaqpqNBTT0BvsUk18Dvg72gj+kKCmF/FRIQScChQSspFgCBOaqVq7GtaEJi2vFNePaOQJApBWA+KwAPwkwxMUKrsHX9vezZ82Jz+L71dx7973sMd4HsQj2lGIF5N0N4CdxCgrmQsNr5j//+c/jjgBkOjA/BCD8/0qVKrW0kcoF/ne2Wrb+UtChp/9y0v6Im/ZTRgIQ47y5zfU74rAjST+lm/6OACT4EwQw+qvRZrz9/Sq7sa+0qaooCFW1EJ9XMfsdkITWDwe+BLqQIkT+XohGBLmTAGlC3KGCqgVcE9J4EfjHjRnHNbPXbszaJBDmCmgEgEAAsUyL/jb3u+8NC8vgwgEXMd6Nzk7iAPj+kgCQsJqADp0yZwPYExxOGzokwHbiTorjAJVkHCA/BCD8/y26ddvXS00pY47/eeI/iX6v1fu/Wf4IQJ/206KNA38GAkCaRRuZRpVPR0XZALfRPKa/1P7ImEi++uKraFNymtC5Z53rzE1SYQnNb0WAv5YC/jTQFyFesAdLWYlAdQdwg7gGXItzzjqH+Qtco8htGvPVmDUE4EggsxXwdSlWwBoCcENfJtu//Wj7P1gjPxppdttld2cN4ArSJCQHhoRNDMpIAOzBPXbbw86kXBhEAJw0ZE8P2trFAfJPAML/P/HEEwcE+/+zZ5vdPf6/OONfKf75C8x/wC8IwGUD/nXZFYbFxvs/rTPOp/3ZtAkC+AoZjU/LBrRFQsvNmaedGb1u9crVIAEAIc1+P/h9Gl8BPDGNIFEIoWaCDHIlAcDPIaxcgzNOPZPpygDU5v2/QPtzzSKRVsA4xGsFhMYCBAEgU5Hp7qcrPrJt4ddG77NKpaqQANZAWdwARG0OIsjN64/8+GMTunr06HG8iAPkgQCE/+8IwOYeHzWBa8SIEQ64ZTD/O/nP+NN7/mPwI5m0v2syoRyV90l+mePChemva382Mpt6tI1oc+IQGohKwQvOuyACAN2HJbVKHED8Zn9hOvh9mh4w50OKEEkEwSQg3IEY/FxTPnv/c/vbVOlyQMm14RohjgQcASAeKwApxQpwBKBaAQjHviEz7N+nmvnz5hnWByM+YO4f75f9xL7zNAg5EvDNCQiLA3Afi3no0KEmcHFwyMAYqwV/FgFUiaXggw8++Co0QDF48BCKG/hQ+ff/c9P+iAO/hwAA/tqHeXAd77rzLgpT2IhsNq/2dwQgwY8Q3KIwhc2JyXvDtTfy2q5vwKP5fSZ/WYFfY83taurjJQlIIgiyBOrFRT7IDdfeYH5fHsVWuCa4SVyfmAAQaQU4CbACZF2AhwCQFAKIT4SaFv1kUdl5yEGH8L7ZE4A8URqsZQM6Z3UDmJdBLCI0DEAPwWsJC6AymM0LAcgAYLVq1drbAqCfQ9/ZxRddTP1/Kc0/Xf9iAtC1vyQAhk5wHbftvi1FJdYKmIl/GQcFo2EgbEgv+BEHfjY5grbDnMUSeOy/j5tCC0b+B2BBS+YC/hqlgb9ajYyiE4FmDbgqQ/eZuB0FQKsX8pn57AxTBfz4/Y4AIpFWgHQFAH4Edufre3o1kIA4wP+SQOJQWB5D/wHr8ksvp7+Ahib2ZqgbkJkAKB0/9OBDbfZpRRABjBs3bioHc2Gpu76AvBCADAButtlmweO/li1fZuv/+1IB6NP+SAz+MpT/yuh/Sw8BNF9DAJsEmP/Jsd6Mp+Ja3m2tANb8efNtDfoCCIEjnmyuf1lUh744blJBe4y3Gspp/iQBsNkRSODzzz+PTiEeNXJUdA34H1UrVcVPzgD+cNAX6iKfoxGBYgkA/rp8Jj4bn5HPymfG34+uwZc2NoIkSWB0TAIAHsB+N2cOWtiW9i4xy5Yss9f8F9sjsMh+DwvMPNt+/YMVvg8CZ4sXL6b2whZw/U72hv9lv6cFZta3MwF9sBvgCIAWb/7mKgoffGAon4fPxj7NkQC6lFoWjMu63Tbb43KG2NrsvZUlJSVbioKgPBCACAD26dPndBO4ZsyYYXbZaRdAV1b/H0kd+yX7/qX2d8U/LZXiH40AuI/JzGsc3OcQc8B+B5rettEElj7+2OOjKPbVV14d5bFffukVNrLdtHPZfHSusYlsYHCMDQR+4TY8twFBBAhrVZnvbSrqhONOcCYywTa0pwS/ZvKHA75qYUK4rxCCJz7gIwHeO5/BfZ5/HHsC6TYAS6ELmp9rEIm7HoAfUAK2pb8uhWijYOtbb7wVFezccP2Npr+NnXCa9OGHHmFLhnvbAbP7m/323s/03L+nOaj3wVGr8Mn/PMVcfOHFUS/G448+bt4f8b6rBIyws3zpck51YuQbZAAJrAkEphAAAjFQEMZ67ZXXTM0axVwD9msKAXTIVA8gJgbzXGpnmPwT7AbY2ZwHy0BgPgjABQALuNO//wW3BVYocOY/BT1cmPXE/9fBjwD2SAB/Yrw3jysqdBvaLzWr14xSRnvutqfN557OoSEEkihtjQhh9szZ0Ub/7NPPjNOCn3z8SbQRly5dhnmMtRIHCCtaTVMbc5r/Hab1VbAHip8IVEsA8Few753P0NLW2j/2yGNYSaTa+KyAn8/tSADg0cDDaUzR/YcffDgC+oE9DsQqpHCIKkFeL6NgUVWLvr+tttjKEvZhNqPzLzv2/WkCg1GZNwtLYqolAIjAWQEzHAlAAJF8G/1k9BvrA3t4DLUMKAbeY0QASGwBIK47MGscgN8x0+Dhhx82oeuYY47pLwOB+SKAyo4ABg8e/LQJXE8++WR0aksXOf23c/4JIHzqT3btLwd8Js/vS/b54xeS0y+yBFChXLT5nUSpvj123dMOt7icQ0fQbNGGZ6AoNQafj/os6jz8zAJi8aLFduN9Ew0mrRKbzpUrVrHAqgXAPOCPwakAv0AThQgkCUhLAM3vhnNUqVTFnH7KGWjTKL/+WeIzfmp/WvMeMx4LyZLCSHPzjbeYPj372HRsi7WuHdOACqoUUidBBkEMFRUThcUxY9zmMRQgQQS8nqvG7GxBeXTfo819tuGLeAJr1apVZHsgglQrAJPc/WTxvvnOIWf2br7iAPwkKHzN1dcEnx34r3/96z5HAK4iMB8E4AKAVTEtXnvttc+DD/+49TYuPh+s9JN/OiJx+a8gALX5J9H6C/iRcP9f5v6b6QQgwI/UT075EW2+/KxTVMeCorJxm6+6zSvvscueTLixwaxx+KtW23wDOAAGRShRYGuptRaGvzPc9Dqgt3HPrVihIiRgQYd4tb4O+ipIwRqpyk/xGJUIXN1ATUgPa8W9T2uO9zLvvvMuFk/UiPOx/Ux8NrT/hAmTrCm+BJ886hI9pM+hXCf3XEueFUh5+gaIeAkgjQTk7EA3Moy/8f7d/yRudMLxJ5rnn33O/By3EmOxQQSSAJLCGvHe+7gDkAwAz1sgkM97KhWBgRTw6KOPviIzAfkigKqxSdFsypQpc0LMf3f2H1pRDwDKY78kAQRYAK1k77/w/xPpP0TW/jeTBNDQQwAladrfQwBIYpYfP+vYn1UqRlodYViFHXF1jhlpgYHPO92an9wGKPycad2Fn378yTz3zHOYwwmQUURUYIoAYBDwAXiwiOemkwD/u3rl6mvIyVo9xEaete+V9zzz21l8BmIcEamNs748/fm4AdddfZ3ZrNPmaz23do3aXKOUZiGFABwJ6AQgJgjbKUHxyLBiO+fAWVq77bw7fQFUfjoisG7B1LUIYGb807kDL734sqlWqRrtzFgWGeMA6WPC+AwH9zk4CmQGLI7aH80J3eDVZQLKRgAiA1BcXLzVokWLVoS0APxuI7DH2eAYX4yfADyjv0UA0Ff/70Z/Sf8/r+Y/EoHfZwF4wC8JQDT6cLu4oNgNu8R0JnDFqcRoTXLbkdZ0AJoz+7toMs4rNsBIMK1B3YZyOGZEBBL8EtjVFZGPhziSJMD/qFYJ0EfvG2GWn31P/+C9YdJH7/WTGPR8Biogf4pHrF/176sBnXsur8m1cRWComPQSwCKG2AlbYw43+2a6cFicGgL9gl7wLlvNmawtc363B2Rll3EbogNxMBHZkYyJ24ouv+++/k+o73WKdq3Pgugc4oFgKyZFgxmiJ3sbIPoc77j9fU1bdq0ueXLl2/hpnaXnQBEBqBLly77mcBFOqbnAT0B0/ofAAz2/9NP9SlN+0sCkLX+3KZarkL5ClzwqGDmogEXM+rKRsIXAX4HJKwCQBSlGj+3AcQbr7/J7L3HPrgEwmcub6pWrJYB+NW9ZFBopWqFqnIqL/+T/817IH4RnaEwwwbJIsslJq6PP/wY0JC+s4HQe03blm3d83EZ+OyuQEjMD5AEgOhugDhQRLEC/OPD3Z5xHYrbb7uDeWbYM4aFNnYkAPhxY7AGSEOyBvQfwHPWDgS2l4FAMS68U/qcQPY298eMGRuKuRVFRUVbiRFhZScAFwDcbrvtjjWBa/r0aSIFuA4IIGv5b6Os/n/iLL86pZv/EfgRT60/P8mbl4+Bxucicv6LTVtNsgUsTLIBXBDBRxZY42xRzAIbuSZ1+O7b75obr7vRHHrQoRyG6spsU6Uc5radSVC5XGVTpXwk3La/q+hAniq85qbW2jrE/g/+F/+TMxN4DxQ0ffTBR85i4TZpPd472Q9rUu/mXieyIKLP6ukVSCUARCcASQLZCUBMDW4dKxA+OxbPkXak/eTJU+KuwbnEBiABVyIezRZg9ezR01Sw15h93bEMcQCex75+b7hMBfoDgZ07d97PxQHyRQCVrBRy4/DDDz/fhC0KXDj3n4381xCAcuSXHgB0BNBUIQDF/GfktWL+10Y85b5YAwTWHGD6HXFUlBGY9/08C6yP/wBZLGhYfpInx09FKJ559ulnI5CedOLJDDbFtIzO1iuqVsTG9IK8giUBAmNcB74znstr3GBfi9fktX+YG/0f/qf93x8Ddvd+IvnAEtUMov4LF9H67LQoVgafN1ElKFqHBQEgXjfARwI6ASCSANSx4eyt5vGEKF578P2DDWvZsmWRNTDTEgAkQIxg9erVts7hB5qGSN2yt3MmAILjnKE5bNgwE7ioBThapALLRADlkgRw2mmn3WAC17vvviubgHJLAbYLqwCUGQB34Keb/OsO/ZDaH1HNfyQv/r8DP5Iy3CNR8MN9AlJ8f2zC115+jeo3UmmAbi0SiOSDCIxRXj3qb7cFK4D1W2uW05n4vo1Uv2wDVdQYsIHvvuNuM+jWQQi3+Z3922M8Bq2NVrfuxrf2Nb7ntXhNXpv/gbj/i7j3we/JpxO/IJDmUniiXTmlVyDIDXAEEOAGIDEBICIOEEgACHvHHSHWJtpzrpy5X99+UbyD5dyB2bNmR7UCrDdef4NUI6/Ffs6JALjPZxv8HwgnbPXu3fsssBpjtlI+CKCyI4Dzzz//vtAioGefeZaqOT6s1gPgOfob00lLAXrO/QP8kaxb/98d4aWZ/w78ssOP2+T3k80zPy/+GXBakH6YBKED4Bp5/yPcBn5P+g3tjdamHp5MA7EEyAHhNr/jb4CXKkb7nFE8l9dA3OumEgB//9TGKjCBX3zuRQ64iHPt1flcrkBIEAAiCcDjBogzBcIIoJE4WdiCPyYAJDUQ2GwTlyVKPUMQxcKeYy/x+Rj2QdESiwpBRwLcZl104cU8jn2dcy0An/mG64P1rvnnP/95lSCAcmUhgPJJAhg4cOBjJnA9/NDDgIkPF38YZQiI7AHYVLoAYgKQIIC/MAAojviqr6T/HAFo5r+/3LemzRY4EjjeDildOH8hYEWrS/A7AZRS0OyhIp7rJwF+TzUj4L/tltvc+6ROAeH9SwJIcQNqlRIH0NwAecIwB4s6AihrHGDNuHAEK4A9hrJhL1LbUWQ/xzNPRwFCyrldTIBMDi4C9fyQOPs8lACQBAHUM5ddelmWU4NvSxBA5TITgGsB5vaQIUNeMWGLlEjcBtxV+v+CAJwFIE7/xW9y4EfaOhdgnWYAFPNfEoA/+i+1P5LU/rLiDxJwxUR777mPTT3NpnYdElDBD6BzEkkCH6xNAjwGy4IUX/9zL0iWQsvhIqJPQBCA4gZoBFAfArCS/0CgODikJbJmUCjKCfKiRPmOQXcaFm4BJEAWh/XmG2+RQuV5ZAGQZCrQiicVGLvNfN7zzzs/tB+AuQCDYwKokW8CqPLYo4+NCK1KstaCZeQGTP31BACjIiArgD+SWPuLIiBHAPlKAcrhn43XIgCCLmyW3AgA0f1/hQD89f41rVSLg2rbdd8O0z0KQr337nt+8L+vgNwSCCQSbAnE/4fnAH5q90864aToPZUvV4H0niwVTrUCiiUJeEaH5T8QGE4AIUeHsTf5n3z+a666xrC4JpDA3PigT+b7MQ0aoKcMBxEWgHMDIgKIPt/JJ51sQtcdd9zxlLMAXDFQWQmgakwA1Yc9NWxUYAjAFnxcxZsH+CEZACQvKUA9AyAIQPT/N/FYAA0zBgDregkg3QKoqRAA0XkHrOrxKK2tt+xuSWAG3XOcZGyBKcA6Il37A16PBJEAvyPN9+PCH2334olxmrAilYFUCHoIAPG4ASId6LcAXBxg/SEA9h/7002QvtLue2cJEBwkKzBj+nRS0rwPNH9MAvp4MHDD5zmq39G8TpAJYHt1Xkbr54sAXEVRdSs17WmkX5nAKOCll1xqSlQCQGQVYL4JAPAnLYCgCUCuAtBTAtwgvAAoPAAo/H8x4EPU4VMGzIb7+/Y7mjkz55iJ4ydCAgKoCviDSWDNa9JWS3ESpb7MNYxHmsVViKJPIEcCUC0AXK31iADaxSTQLJ4fefONNxsWbc/EA1jX20AergJ73sUAQiwA5lAcdshhFCAFuQAPPfTQ25j++SYApN77778feBQ4EdCLIACbAtx8/agCbIZIC6A5kmgB9lkASAR+JFMGwE8AMgDo9/8lAbia/Gpxd1vPA3qZ+XazoZUBcAR+RAV/OAkkSIVuRZvjv4r/zaZO9iCIjkExM0BxAUQcoGwVgYggAMQRQNN8EEDrtUeFs2d5fYqtHhr6oGHNmT3HtngvNQsWLOQEYN4ve172AyRiAIIA7Hs/+KCDGa4T4nnTEPR+wmqvmg8CqBa/UMOPP/54iglcAy4Y8IcF8JdVAbbxdQE6C8BDAHl3AYT29xAAwC8DARTEQzyqxIHBM6w2XrxwMZF5XfOHSMprEGtYaBtkhg4euibaX7WG6xXwEACSMRAoC4K4loGpQCRpATgSkMVAoicgnACUI8PYu7wnYjXD3x1uWK42YNBtgyi2iq0ARwKOAKyIfgBwQwqzT68+EYmErMcff/yj2GIvzCcBYEo0/uSTUdNC/H9W//P7WwIoWQdlwN4pQP4gIOB3LoBH++tBwOwpQDHpV4z2lv6/A78V0aVH7X80tPSOu6JJOiMsUDUCGDE8KboVQFsykW1IoHrVKAbBe6FfQBIAkjcCEKcIZSIAJLQrcBOkzAQQ7U/2Mp+X17EuwOz45KFfcAk4IRtlkrACnAvQ1WUB1qoF4H337tmbkV8CcL4ZHE98AvgTFkCFfBFA008//XSGUZckgM3XcR9Ay3QLIPb/HQE4F8AzBOQvI4CicAIAfAi/i1tZK5t33nwHoALYNeBXCQDxEwCxBYZzMj+fmA3/i9kBNAzljQC4JuG1APpsABcDQFJcgGaIdAEiCSQA5biwLnYv01+x1x57G9ZPcZ/AdddejxUABpwLIC2AtVwA9mOvA3tzWGgI/s0TTzwx6s8gAF6oyciRI6eFBgEv6H8BZZvrgQXgsgB8sf5BIE1FGvD/goAO/IhSBZg/F6AoyAVIdvoBSIBJ/wXDRVw8QGh/QQAjEJUAEIqP/hHPKyT2INqHwwkASbUASo0BhBMAIoOASRcA0WIAeSAA6lbYw1yvKy6/Ip42tJopxrirvPbaLoDrCOyCCAugVx9rAQS7ACMBf74JAGlkZ/yFxgCYaQ4BwGTrKAjYSsQAPASw1hxAwC+zAF4XILwKsGbU744EFwH5CaAwlQCQqvGgkbPPPBtXAHA7AOdsAbz3zntRx+HQIQ8aN3ugoLKcH5CjBaATAOLAnxsBICkEEMd9PDEApGwEgLCHeW2OP0t29J168qmMJ4sH4igEYK2Xg3ofZKsKl4boXYKAH8bgL8wnAVS3Ut9OKJ1kAtclF18SE8Bf7AK0kEFA4QIgyRRgshIQAnAkIF2AktxcAMTvAiAZCaBqkgCQBBjj1CDy/LMvUOdvffYR6VZAQAzAFfuMHzPetGrZOjb9C5gCxP/LswuAlK0tWE8DIjINmKcYgOfIcPY2Q1X+bo8fX778t3h60Et8bvb5WjMB5FAQNxXokIMPsc9dbgIWQ0TfB7P5JgBerNZzzz0XeiIQk1fXMQGUfhBo87RSYAd+RwCIEgPIswuAhFsASIIAAKZzBXbYbgdiAcwQkAQQLFgQmP6nn3p6bPpXN9UAPyLN/0ACKJIEUBhGAEiWNKAMAjZOcwGs/FkuAOKGgrCvuX6MNGf9+OOPZtedd6OEOdb+iAgCxrEzPsMRhx1hVqxYEVQI9MADD7wTx+xq5JsAalj/YpQJWgQ7rhOFQOsqCChcAK0XYC0XABEuQAz+YAvASwC1JQFEUpQDASCOAJBK5aPUoB06ejNzBIjcQwKZwU+F4euvvm4qVYgGjLj/oRKAngYsRnKoAyjJbgEg3ixA/tOA8rRgWuLZ0+wjlA5t1U5BVqlYxWHB/hQuQBw7Y78dd+xxwb0A9957L4NBK+abAHix6rbKaIQJXHfecSe9AABeEMDmggC6xgSwphQYyUchUMuUUmBRCShcACRpASBlsQAQrwWglQLLSsAUN0ASgLMCIleAYBOTgwgIZqsHiB+L79+ndx8H/qT2z0YABUGFQOEEUGf9qQRs53EBkORgUPY6RVNnnn6mYb3z9ju8Z/Z4qZWAfM4zeE4Y/unBGQZw3XDQfFUCQgCVLLu8agLXg0MfpBuQD+cfCCqsgE6JbsC4GchK/ucBBjUDNShTJWAeugFlL0CNYDcAYSYgwOUsu/k/zMcKSKQFPXn/9xxJjIjGXQ17cpiLKTjw5+7/I9mbgdbvUuB4/zGYRrgAqaPBeT3eHweXshiZx/vsmjIZ2FnOfO6LbEA9OPh+4YVDYwKomU8CqMkdW8/8uAlcTzz+BH4W4E5vB+ZDewigY8o8gPZiHsD62Q5c+jiw/GcC/FYAtwEuwTsCefTsA+5QYd5frwN7pZr+Ofr/SH6mAonpwA3+dAJoLQkg2nORxNofEf5/LG4waKTp7fjzSk6jR0ejV6tSHYUYi2gHtj/53P++4t8mdNmpXXc4AshbN6AjgLPOOuv+0IlAr776KhcNbR77M9IF8MQB2nd2BCAmApVmAbRbxwSA6O3AiD4OTFYDhrsB0gpw5w9cd821jAdLpgW9giXAEWUvPv8iB3Skav+CVO2vm//hGQBEzgUMTwG6IqA8EgB7Com1vyMAfwDQd0agG0vHychvv/U214X9nzoRiNsE0m+zB+yEruOOO+6afBNAFUcAJ5xwwo0mcNm+AePOBXQEsHmCAPwDQSAAZSZgGyR5JgDyFxNAeCagTHGAInn8lywI8pFAIhbQfevuNqA3jdl9KgFAEgQOT/jHCe7wEb/2D0//lcX/VwhAHw3eJJUAXBlwc5cCRFwNgCOAhPmPOPMf0TMAiDwbgP1OJeB9995Has9ZsKkEAD74TEzXChkJzNpnn33OdjGAvBNAr169+pvANWHCBNN9q22iI5dkQ1DXVBdAHgvWMWAoqCSANalARwCIlwBiEggmgGyBwLzMBFCsAJUEKEcFyBy2SV1A1NmX1vOPvB9N+InafRs3asLzBPh17Z+7+Y/Uyc9MQMX8byr7AJo6YX+g/RGn/RHh/zsXgL2nEYAYC46S4/3uuvOu1PczZp33nkoABMYhqBdffNGEri233PLYBAFUztdMwCLubL311ieYwDX3+7l2dNXegOxPLAd2MwEFASDpxUCCAMSpwEkScASA1M8lDuAJBIYVBAkrQGkNTjn+KwnYaIrtkf0Y5+2d94e4yP+NN9zIc6gsVMCvp/70CsBs5j9SP9QC8Jn/iGL+p1oALVuH1QAoB4QiuEaj7ODVQbffAYGmEgDFRDx/pD1KPWStWLHStGvX7sDwkWDhU4FrcKd9+/Y9V65aaUIW7YsMMoCF/zwCUMeCxwQgx4JldwPCOwKzngtQRitAtwT4Ii3ZNWfDkRIE7N6hn5zks+/e+7qGnyDwIzXyb/6H+f/rLAWYOwHQUMV5CRwO+5w9jLSweo1UAuB/bd1ta3sYyWQTsmbOnLmioKBgO+oAwqcCh58LULGwsHD7WbNmrQg9HPT0007nC9ugjgaTcYDgg0GD3ADFClBcAR8JuOO6OecOgPusAMaNc+JPnVp1ebwCfqRGzto/3PxXCEAMBF0vCKDdmipARwCdEgSAu8v/ps33kYf/y2uy/yUBRClqrOhFixYGAW7MmDHf2++tXaJ4r1I+TwaqbqXtl19+9Z0JXFdddTVfIh9oQyOAsh8OEh4MRDJZAZIEXHnwUX2PIsCXNuKb38Xm/03GdfwV5Kr5Q7R/cPoPCTki3NMFmDcCYF8l/X9XBJSSAmwrtX9HORKc29HzbrTlwbQMc1sSAJ+rn/3OAhexgrFM7sJlDz8ZKPxsQF60zjPPPPOVCVyDBw/hC+KD+YqBYhKgLTIiAJEKFIHAtuugFiCndGBJ+GyAcCtAkAAiSSDNHbASuwFsRE4JcqcLSYEADj3k0OixhfHz0o8I90f9pemva/8cZgCEE4AP/DIAiMTgb+HV/ojT/ojT/tkJoHOk+Hj/dG72PaIv/xtsrNUHwDXof15/E7ruu+++1+OgfXH42YDhpwPX4vbtt9/+vAlcr7/2ujgdyB0OAvilFVBKKhDxng60qTgcJPV4MBkIFE1B1ITnfj6g7gbkwwpQXAHFGqAMlXMFOOOPPL8EP8d+MfTD9bC75+maP9j019t/9ei/PBAkewZA7QL0nAokCQALILv/75Qc+x0SotXXxsoO5//LGoCIAG6/7XYTuuzJXUNizNbK5+nArh+gVnw+4J2hQ0HGjRvHgArAqcYBOpfVDWglZwP6ugIB/zp2A7RYgOYKeCyB0qwBN0X42qv/KAr6KD5RyP2EFJ5/9nmCU4wY8/j7HrNfgF+Y/or2Dw/++f1/UQDUYD0NAIpTgXjsjnaq8x677clrrDUSnB4ZrE/bgWtC18EHH3xxjNliVwacDwJw1YDF3LGFBucGxgBt8GKR2W+f/bjoG0AgsOxVgTB6uBUg24RlPEBItdKtgRpW2AtH9zvaxgF+kOcKRqW/N+H/x7l/Afw8gF+J/AcH/7Ln/5s0Wi8JgH0PHqiXAQciBdg+et6XX34pUOZfm2++eV9ZBZgvAqgSxwDKbbrppr1W/P67CSWBk08+xdSrU/L/DwEgQSPCJQHkzwrQ4wFIkYcIEtaAkOgcge3+bqZOmUqxz1oEwMDKU/55Co/xgl7O+1eCftL0R4TpH6r9leBfxuh/My3/L81/CX7ZBdgmBr/IAAjwOwKIwY90dc1yMgAYva/ddt3dLFy0KIGv1V6kzZnz3cri4uIdSdsni4DKTACiFqBaxYoVt/j6669/NoHrxhtv4sslsJGJAMQZga4rUMYBHAEg+GWlFwRZcV9yHtwArSYguxWguALBJIAI4DoCICYD+PH33RHjn9hCk9n2AIse+/bgMRL8Evghml+J+kvTP2/aH+G7KqP537JU7Y+76Q8ASgJwJJB+KCjCbeJiYANBWUJ6xx/3DxO6Pvjgg+n2u9sEnLoUYD4JwKUCcQNKSDeYsIUPwxfhugKtaF2BncUpwXmIA1hpWTY3IHQ+gL8wqNZaVoDSJpwDCQgiSIsPcFY/z3n5pZej04UdAdApOGH8BLPlFlvypUvyUICvg99j+ivaX0n9hQ4AWX/NfzEIxGl/ZItoP1x/3fUZMgD3v+lidckUYFkJQGYC6uASXHfddU+awDV+wng+EBesbIeEtPuT3QAkSQBZrIB64VZAbq5AGAlIa0DGCKpUqBoBfOiQoYwLcwRAARCZACLi/F2AXtH6mubXwa9r/6AR4F7zH/GAHwH8iDP//3oCkOY/f+PzPP/880FuNuvUU0+7M8ZqbbCaLwKQmYDa3Dn88MP/ZQLXUntGes8DexHR/MvjAIgjAP9RYTm5AXmIBXhKhAUJKJZAJiJwBUEDb7nVzLU5/5F2XiDytbUGXnv1df4nGQAeG671dc3v9/v1rj/lABCP75+b+Y94zH/EC37EMwMAAfzZCIDX5/fW1Taha+eddz7NpQDdKLB8EIAMBBZzu0OHDoesXLmylEDgajEi/EJTu7hOZgJww0GQDkkSEMNBpBvQxj8mPBc3ICwlGJ4RUFwBnQS81oAkAiRJAHEm4IrLrogagxwBzJg2wzz1xFPMD2BgBY+V/fx+rR8Ofn/UX5/7F679FfAjm+TJ/Eeya39EmP+CAPgsvXv1NqtWrwqK/8+fP9/Ur19/V2J1MgOQLwIox4smSgy7jB03dqGPAOQ7/u8j/+UL1CsCO4YVBOXfDZCHhehWQCmxAI8rUJKZBGqFk4BKBAjxAPYDk2gYE8bEYGTWt7PMgw8w978cJABp+EAvgB/u8+t+f560f8Ms2l+Y/0gM/r/U/Edi8CMMSLnk4kuDB4G+++67kzm5C/AnuwDzRQAyEFiHf/Tggw++HzgciCYFLkJ0waQV0PVPTwcircteE6BbAaEBQX+FYHZLQCUCSQjshzNPP8ssmL/QRv9HRTJn9nfm/nv/EzcAVRegj6VQAX4A+Ovofr935p8e+fcE/2LwBwf/RP8/kjIBKKUByIG/bP4/v+NzDxs2zIRn2m58Ovb568oAYH4IQAYC7Trl1FMHmbDFTHNMGr6wjG6Avy+AfGuSBNqlZQOQrAQgjgzLjxWgxANkr4AkAXmkuN8akEQgySAC+Wknn8bJQVE6EKEI6J677nEtwJq2V0z+soFfN/392r+xpv1l8O+vif4jCfCXTgD8H+5PmzYtSLuyDjrooEtijILNavklAE8g0E4eOcZkWFf++0o2cCkEsJkYEw5riglBeXMDkJaZawKaNvRaAWknB4VkBbJbAkiNUCKQZBATwCmnWwJY5AiAgKAlgHv5G8dY8bhg4OcOfrXeXzf9lbl/uvnvb/5BktN/8m/+d3XgF/n/+uaIw480oYtThzfZZJP9sNBlCXA+CUCOByusUKHC5uPHj/8xuDHo9dcxo5NTgvPfFyDGhLURNQFZ3YDsdQGhWQFHAr76AEkCSG1pDaQQQbF0DaREID/rjLP/IIBPPo3kO2sB/Oe+yAVgqpAf8NmAX6rm9wf91Jx/Jt8fkeAPD/4hCviRdvlJ/yF8hwwB1QJrbg0fPnyq/d6aA343BzDfBCDjADXwNfh5//33v2MC14IFC8zfd9yJC1+GdKCwAto6EkhkA1pnCwYiAacGKV2C4YNDffGAZHpQkoBuDXgsAiHOBRhw/oDoyK9PLfiRObPmmIeHPmw7BiswAdg9XgF+/sGfm+mPlAL+TJV/OZr/iBf8SBdxEnA6AVD0xl4cNWqUCZ+5cdXjMeDryQrA/BOAiwNAAHb169fvmtAx4axzzj4n0mTdNutWCgEgXfIYDETW1ARkTgn6rYDQEuGMJIDEYFFIAKklLIJ0MoisA6L7EQFcecVVNnW0wHxq5wIg39qioKeHPfPHKPEKVSTgPRrfD/yUEt8U8Pv9ft30z9700/z/wK9pf8QH/pzNfyQ9+i8OAqV5btWqVSZ07bnnnmc7/18WAOWbAGRrcKUWLVrsjw8SuuwwEc4LxN8XBOC3AjoFEwCyae4pweDCoPCAoHQFFBJQYgKBRFADSScDZwEMunVQlAZkMAgybco089Ybb/E/qQOQgBdSWwAfqePX+prmxx3Kt+kfHPlHAH9Zg38I4Ec65WT+b2GVIkVVV191jQnN/02fPn2ZHdO3LZH/hP9fIe8E4IkDEAxs+sYbb0w2geuHH34w226zHRc+Bzcgbx2CYbEApEnGgGA+SMARgT8uoBOBx0Vgwk8Fa+Yzhw6//zM7BASZNPFrYgGkvyKCkKCXr1nba+77wV8v1ez3a/7cTH897x9e+KMc/+Wp/vNqf4UAeE7Txk3Nhx9+GFz+O/SBoe/Ffn+9RAdg+XwTgK8eoIRf2CkknBYU7Amcc865priolu4GdMy1JkCkBFu3DbcC9LqAUFdAxAMUEhCFQqo1IN2CQDKoXL4yj7GTmt6Iqv8cAYyxY8Im24Eg22y1DV86j9VBHwh8CX7V50/J9ytRf8QLfi3vn0PqL0EAHcpS/LMm+r/ZH8eA77dvjwRu9HXEEUdcFeOyXiL/Xy7/BOCvB6jQpUuXI/FZQmnrlVde5QtOHhqaW2/An28FKAHBgKEhPhJIxARkilAhAQ8RIJIIrAjgshfQZIwGnzh+ImPAIuE+U4J6HdCbx8jnSdAHAD8d/CUK+Osrml83/YOr/pS5f+Hmv2f2X2bzn/jMzfY499BF+W/Dhg33ii3y2skRYH8qAYi+AP5xqxHvvfdN6TYA4pqDlprdd92dLwzm092A8FiAJABEOTgEWVMXoAUEA/sEvPUBDYMsAekSCBJIJQKkjiQDIX8QwG477878ePPVl1+Zzz/73DhZvHixOev0s3iMIxB+hgNf1/rh4FeCfv7DPiT49bRfNu2fY+5fif7zWvz/sWPHBh8D/uSTT46Kg/H1RPrvTyUAOSCkPv90wIABQ0yGde2111JumuoGZLcCOmSzAsLrAsKzAko8ABIIdwf0uIAkAq9VIIS9cMLxJ5qfflzMDIC1ZNHCRQQHeQzBP/FcAXoV+EiJMPnDwN9Aan5/tR/iKfjx+P4AP7TqL1z75xz8Q9D+XL9+ffuFQN8tHn9tjMcSmf7LOwEo6cCKHTt2POx3xoSFLXoDSLXgQ8UEEB4MzMUK0DMCubkC4SQg04OeFKESHMxCBJIQnAtwk53QtBgC+PyLtWTmtzPNq9Y9g5irV6ouAO8DvQR+gNaX9f3B4Nf9/pwDf+G+f761P7f5bjhOP5gAvp8719SrV7JbbPbXkeZ/3gnAkw50g0Ihgab2OPBJJsM69pjjMFtLCwYiXMTwYKBqBQQFBBVXQB8cIt2B3ElAVg5KIvCTgSQETvjhCKpXXn6F04Hw+9eSCeMm2EDgZLIzfPGpoBfaXjf3ZYpPgl/m+YPBr/j9ZQr8Ie2Uwp/ctL8kALQ/73uH7XYwv/wank4fMmTIe3Emrr5s/80/AehuQAN+8Y9/nKBGMJLM9qw9E40jqDb7v2DgFlpNQOLgkE55rQvQXQEtHqCVCqeSACJJQCGCknAiEEVF7INum20ZDQQdP268+fKLL42Un3/6ianBPJbX8wHer/FVrZ8R/ErEP8jvV01/av7zrf0Z/KkH/1B+TF+6+sqrZcisVCugR48eF8Y4rK+Z/3kjAMUNqFZSUrL73LlzgzlgxcoVZs/d94q+5C1UK0CPBYSPDCu9OMjvCmQLCkoSSJww7KkTQEiDhROBjwwkIfA39sGJ1v//9ZdfI43/1RdfWYmAz237OwjgZ3PH7YOcBSDBLkGfYuqHAj9c86sRfyXl5zH9lcBfqO8fnvrzTP5BmPwT6voTKPyRPhw0vxb9zycBaEVBDbAG7r777rdMhnXP3Xfjc4qiICQwGKhbAUpasG1MACGuAOKLBzgSCHcHdJdAkkA4EUgycP7/A0MeMD8u+hHQR1kAgI9wG5kxfYadEDSS90nNgAA8UpId+Lq/r0X7lYh/qN/fsrSov5L2C8/7I7r239wemLNlVJl52qmnBUf+WZdddtmjscZvqEX/80kAWlFQfe7vtNNOp5am+VdbkbnMrbpthXbVrYBOXfKVEfC4AhwlFlwgpJBAU4UEFJcgIxFIMpCEwKQfPi9+/pTJUwB7qoz+anQUIOx1YFQPwOsKwAv/XoA+J60v8vyKzy/m+2umvzLo06v9Ab9f+7PPnO/fya/9SzX/2beNGjSylX8fOXio8F+yZIlp27btwTHuSkTxz19OAHJGQB0rrd95551vMoQCzLXXXMuoqpRgYEhGQIkFKCTQJmNWIKRUWCEBRJLA/xKBJIE0IpCugYcQGtjbkfl/wj/N0iVLI40/+svRqcLfcBHuvONOFwfwgh6pr2h83revrFdofaH58wh+6feXzfRXu/5CtT8l1snUH8pRI4DHHntsVJz3ry9r/9cVAZRPnETSiF8cc8wxN5lSlvycM2fNjIImfEFblDEjoKUFs9YGhJOAbgmIikHpEujWAFLXTwQ+y4AyXiyAp596mly/0/RemTZ1GpYC14AJwfb1GoSC3qvx/eB3wM8D+NVqv8Ccf3jgT/H9kXTfn76W+nVLzNtvv50EhuoI7L33Pv3BmHO5Re3/OiEAGQwsqlat2jY2qLE0xAdw64p/XcEpNJkLg/wBQdUV8PUJSBLwVwkq6UE9JuBxCQKIAKkvyCCNECAMvv+d/76z7f6bB7A5Eag0sVbAaPP78t/MGaefwXOxRgToywp8zeSXrb2i0EdL9wVW+3mi/krgT2v51Qt/0P60UpNt0ZY4+Weu/T7aY22L1t9y64wARE1ATSuN8U8uuuiiR0J9ANa3337LxVStgC65BgSzZwWyk4AeGKSD0BsXCHcLfGRQXxJCFJyL2n9vG2SWL1uO9reNP2NKFawARoYPf3e4qREfLioAL0AvxAd8Vev7+vqVQh9/0M9f6y/A7w/8aWm/4Mi/0P71meQbHPljHX/88QNjsDeWwb91TQAyGFitQYMG+9L6q3GAnBlYWK1QWAFaj4BuBQTWBnjiATIo2EoEBcMCg0StVZdAIQFpEUgikJYBf+O75xp9+823Nv8/ja6/YFm2dLnpe0RfXoP/LUCvaHsHfKS+R+t7S3t9qT4F/GqxDyLBj4SDP6Tjz6/9t0D7M5jF+v5HJWCgo3/ixIlLqlat2h3gy86/9YUAnBVQK2ao6jfccMOLLrgRsr7/fi4XjS9VtwLCA4K5lAkrJNASCSIBPTiINMmZCCQZSELgu7/x+pvMit9XRtp/7JixQYIVQLrw9dffsCPCqjEXUILeD3yp8XWtL/19Jc+vmP0i6Bee8kPaZzP91Zp/OfKrY6T933//fZNlnXvOuYNjwDfB0hbBv3VKADIYiBXQgNutWrU66CdbWWYyRARvvfVWYgHUBeitwrkHBKUrEEgCrfJEAp4sAdJAJwKA5SMD5ybweL53UqdzZs8x06fNsMAel0m+slkB1tlnnsNrrQ14n7Z3oNeBH6T1s4N/bc2v+v3hOf/wwJ8n7bel1f5ku0468aRS+2XlmjFj+qqioqKdEzM4CkTl3zolABkMdClBrIDCWwYOfP0PK2C1/xCxxMf/7bflDA5lU2EupVkB2QOC4QVCOglskpUEhEsQag344gPSKkBSCMH5/vfde7/V/isijT5u7LhgwQqgL2DZ0mXmiMOO/IMAPID3mfkC+OkRfr/W/2s0f7jfn0Pgb+2a/7Yt20bv3U7SThj/q9UioPPP7/9gDPgm4ty/9YYApBVQw0rD2Ao4WLMC5Ed/6qmnTM0axVxUe+EUK0AfHabHA7SgYLglYEUhAd0a8LgFiJ8Ikm4Cz+c732uPvcySX5Zw8KcF9fhMMtpmA1i33DzQaX8B+FQTX9H4fq1PQ5XX3xeHeSjgtyJy/WFBvzyY/shm3rw/A1f/ZbNdYt+XCv7pf2j/XVCmet3/uicAaQXAWIXXX3/9y0YJBsgqqCNt8Am/c8sttlJKhBVXILRjUC0SQlprloAcLKq4BGUjAkQCDxeCuf6VK1YxI977wPz88y9E9mn+CRasBXoCvrRFQRBx5QpVsEgc2DXQC42vAB8RWl8E+zxFPv6AHxIOfr3gR4/662k/yLL7VttwiEdyv6s+wFlnnTUkBnxTtL+r+19fCUBaAY0wV+zYov1cRkA7TNTdHjduXPRlt2nRhqxAoCuAyJkBiHAFEE9qUG0d9gYGkZYhGQIlNqAQgY8MEIBY8ofvf9mllxkWvvz4cROChceTMVi6ZJnZZeddeS0yGAGAl6BXgc/reoGvRPq94E9qfj3ir/v9stxXN/2l9u/GY+h3YYJP8Ng81oTxE5ZVqVxlWyL/TvuLwp/1kgCkFQBzVb3wwgsf01Ie8npcf9319LATEESyuwJ6x2A+SUD0DrTwkAAmrWINyPiAJAIPGVAgw3e94w5/N7/8/AtARqOzkVQZb4XHTpwwMT7O/SJeKzbzGWziAbwCeh34utYPBH/2XH/Ofj8iwZ+e9sOCpZbimKOOMVnXsccee3us7ZtJ7b8+E4C0Ahrw0+Ywd5gwYcJvJmA5T4Gz0ffYfQ/q0bmQARWCoalBLSiItJMkoKcI9biAYg0oFgHSMJ0MeH7F8hWtyV6Tmn7q+QnkAe5g4fGsYU8O44vH/Od/qoD3g14AX/r5qtZXg3265tcq/cLz/aE5f8SZ/sQseC/ioE9977/33nvf2++go5U6ivZfLwlAWgHNYa6jjz76VkX9W1nbGSJfSkPJpq03DXcFguIB4enBcBLQ4gJKbMBDBDJGIN0DHsuYdb7nR//7qGERyUebp8uE6CdTgfk5wQpxAioF8f9rFhXbswMq8rqhgBfVex6Nr5j7utZHWvnA74n2ZwE/IsHvSfkFnPLD7zmH4f777pf7POS0nwsT2r9YRP7XewKQdQH14+qltq+/9tq3Ii2orssvu5wz660b0K202oCw1KAaFJQkgOgkIDMEnriAmCsg3QInaEeFCGIy4Heu4OeySy43LNJ3AHvSxEn8VAXNT6aGseAccslr8Z5UwDtNr2v7dOAjXuAjLUsx+REt2p9/8IeW+0amvx3zfdghh5nQ5TAxdOjQz2PLuaHI+wvtv34TQDkxN7AZ97t37366UZYcibRy5Uqzx257RBNqtgpxBfT6AD096I0JeDsIU1qJpTWAKNaA3zVAJLBcyo/GEjYQgz0x5wG/IhMjwVJYuGChWfLrErPTjjvzWvxPHewC8H7g8xk0jY+0kOD3mfwefx9pG+rzKxH/gJSfEvXnc7dt2Yaju2Smq1QL4McffzQtW7Y6FOWZUvVXbv0jAN0KqBQzWL34AxXfcsstbwdZAYm/f/7559bEbMIGSC0Q0oOC+SEBaQkowUHdGpBE4IkRSDLg94CM77aHPU3mN9u9N++HeYDf5v2/RizAET8JAP758+ZHhUI9D+jJawHquG8hd8A7aY7owA/V+kqazwt+JdevVvopfj+y+VoFPzyvsGoB7pjUa6ofcN555z0aA75Z3F1bXWj/9ZQAdCugZkwABTVq1NiNqTTiOqjrrjvvinyqrh27cqG54DnEAzQSaK+TgK+ByNNJqFkD4USANOd3gI8vx1pGexLwo26fKD7ADxIeu8CeDrxq5Sprph7OaxHoA7gS5MKXV0AvtX0I8KWvr0T5NfC3k+AP1/xK0E/3+1FO1SpVM6efenpW058zARfZ72GzOOLfyHX8Ce2/nhKAbgW4o8Q2sVLxoIMOvj7g0giTiVHix9pCl0LqqsPjAXpmQNQIqJYAIkhAxgV81gDSMoAI0skADUlAju903733jcD/8+Kf/xjpPWmyEC/4IQw0Pz4qr0WqD9C6ohxFfFpegN4f3AsFfgr4k1F+T6Q/s9kv/X4B/lC/v9vW0Zj7Hbfb0Z5+tUz4s/raYYcdzgUbYMQN+1Q6/tZfAlDSgkhjG+wY/Ue6b3UQFzgfqftW3RlPpVUJKq3DCgmE1AmkBgdTrQGPW6AQQdO1g4U8r6RuSQTYIw/vi9lvwf+TjeZH8/xTRZICRLH016VRifD++x3gND+vL7W5ot0F4D2aXqb0woGvBvpSZvgjm5YN/B0U8PtSfltEKb8oWPrll19m1f6clPVGbCU3VdJ+6z8BKGlBzJvm3K5Xr97+DALxuALe33/yySdsWjaRXh+QfxJQ0oTSGpCxAcTvFkgicGTAazArge/ywv4XGhbjvYji405N+XqNTEbc7ZgI0Pw8dvWq1Wbud3M5iCL2+ZvZ/7GJALUCdk3Le6P64RpfAD+jv4+0V8CfKeKf2uiTPNqL16EE+6GHHhYxLBX8xLeWlS9fYXtM/vDA3/pPAFpAsAX3+/Tuc6PJYT344IMAgi8zc1AQ8ZAAEkQCujWAtAm1BjwWAbejx0RgrW5dn6FDHjSs77/73nxtg3xTJ09FIAEnkhCix02fGkWjOQOQ98brobEQgKxLUxXs0sQXwG+pAB9pLYJ8DvwS+Lq/n13zS/CHaf4t4gNtqlSsaqsnL0xRXCoJYPqfHytIMFFHBv42FAJwAcEqMdM1jAMd9e+8885RelZg9RqJ1yUXX2KqVqrGlxIHBfNgCYSSgHQJdGtAJwJBBjynfpzjJ/352aefGdY3M75Bq3PCDwIBeGSKmWS1PtkB1qOPPGqKCmtGr8f/i6wLB2wF4ArgFdBrwNe1vgS+39/PP/hlxF/m+wlMH9znYAH+sHXppZe9FOOhWcqgz3IbBAEorkCNKlWq7PzVV1+tkCSgJ03oGjySoGBcJfg/mQGtUEghAXHOABmCUJcgdyLgb/YnE3nLmYrlKprzzjnf1vb/Gpnvkyf/AfxpU6bZn1KmOsEKgCSI8tPYEw/1wIqozv8MB3iIhlc0fVmBL8Gfm78vzvELMfsV8BP048j1bbbehthUZr//jTfemGe/k66uZ8ZV/MnA34ZEANIVqGulFfe33rr7ucGnC4uDEnbeaRdTXFgsi4TCLQE1RSjThB4SSCUCQQLCLUCSm5/H0DnGd7bDtjuYN19/y7AWLlgU9fVPmzo9IdPWEkcEk6y//72t6mN9MvITs90228U9/Q0AmwCxKjropZYXZbu+4J4O/HxpfX+ePxj8otgH8DMVic8ziWO9wuFv3IE4LVq06Iu2103/DYsApCvQILYECk4//fQnQi6fNAdmzZrFF8XRVUkSyFwtKElACQ4qWQIRG4AIPKXE3OcxpJD4rvjdwFtujQ7xYDHOywLb/pzuJCIAKWh9jvZiUdl31b+vdoFDV4gEYMPFa86rWl7R9jrwVV8/3ORXwK9E+z1lvmRF6terz6juhGYPN/9tGvy2GAMtcYOl6b8hE4B0BYpj86eE/KdNDU7UXAFE8sC48ePZXLCy1xLoGhoYRHIhAUkEilvAfTY958PxHaEZL7/ksqiNlzXPzlDAnJ9hCQBgQwRJcWQwNdb+pAVZr7z0itl+m+15TUiF/wVYyyQtfbIJIs17CXoJ/Daqxte1vjT5kQ66v59S4YeEgB8B/HzOYtt1+cILL6TsTXWR8hsRB8IbI3rUf8MkAFkghBlUaOMBu9hg1++uHTjFevJe8o8+/Iiz1sjFSktAkoADvmgh9pOADA6qAUKPW+Du8x4r/K2CKW+FTXX1VVdHYGcxjQeTHtD7BAJwmp+5fazPP/3cHHvUsbYtuBKv60ZjAVRVdJC3EuIDvAS91PYS+Iq5X1atHw5+RAU/75N039AHhmZq8CN+w3rttdfmJ6r9sHxrS9N/QycA6QpUTkw7bcX9du3a/XPhwoUilxq23nzzTVssU5+y1VItAW5v3W2rqBOQ6jc2XrQhOvmCg0jHnKwBfrJxmKpTpWKV6LgtZgMefujh5qGhD9lx6D8YFkM8HMCJ9Etxf4McsBKo5GN9YU/6PeP0M+0x3nX5wmjL5fOIzELu0qpUAehCNNAHa3zd19dNfgF+3exPb/Cxe4n3VN2OSL/7rrsNK2vQj5kA9gj9PrG2b+Xm+0vTf4MnACU12JL7PXr0uEW5qt6Biq+88koUD4hIoFuKJRCzPTPa9t93/+jwi7333CfSykwgqmufS7CLTQfo2TwhLgHCc9jM+M3Mf69utQWannHQPJ66+9tvvd188fkXZtWqyMKhG8+BHmCvJRL8NO+4TfXB+x+YM047w07rjVKFpAwBUBKICnh1kZpdAr61lJZe0IvSXSft/BpfB75W3CNKe5EuweBHHPh5f9UqVTW333a7Z5wn4gf/8uXLje2EvTDW9K2c36/X+m/YBMAqL+IBTeKcaM0zzjjj+dDIqrz8L7/8sqlXpyTqYNsyhQT4wtk0W2/Z3RxuQXnJRZeYQbffER2hddYZZ5m/77ATz+UUF0gB5iegRo93FKVHalgptMAmDUkDSJUKVSLzsE7NOqalDZpt13276LUvv/Ry89QTT0XttytWrDQshm/Mnj0bcNPCmxQB/m/tMV3z3EaKqvge++9j1no4Av/ejeuOgAPgJCBb5UlapwK+jVfLC02vm/mZgJ/J5E8Z5YV09RT5/K/Zz/vlcJTbbr1NbLtwv//www//T7zHN4nrX2rKlN+GTQDh8QA3Qag+ZDBw4MAvjLLcNyEtgddefz3SigzL3DIlJsC4ZjZGo4aNI1/3kD6H2Oj7QPPmG29F7bJo3E9HfUpbp/XRr7G59LPNicefaI62892wGvod0c8ce/Rx5uSTTjHnn3u+udpG3e+79z7z3LPPmZEfjTSzZs4yLrXpIvPfzfkOkPO3tSQCfkwAPIYmH7fQ+q+9+poZcMGFEWFVKl8ZHx/XBeDItKJMMZZR2kitnhnwAvS5A/9/tP7/Al809Hj8fX9jj5znxzVgGI0tVjO5rgEDBrwZx7kai+m+0u/fwAkgPB5QF1cgvlBd7DkB36VnBlarxypzACOmfYO69flC04qF3G0KXdD2ljQa2k67/cz1114fmdlLCbJlXAwx+WnxTzYf/310Ms/sWchsJ9HvAPq8efMI+vH4tYiCXv3HH3vcnHfueVgj1hKJRn5xqixAI80owcbvU6V1oOgg1wGfDfQC+LJ+Xzf3da2v+/vePD/7AddtyOAhJtc1aNCgMbHWL0nk+8WEn40EIOMBNeIASWsIoWLFijsPHz58ibELvznLiaNumAgBpTo1a9NGnDpLIBkc7GL9RLQr/jsTXXnu/j0OMP3Pv8AM+c8QTs2N0m4/WeCWZa1csSJq6KFib/g7w80Dgx8wF15wkel1YC+Ck5ARAUNAjx8OSGRdQVIEEGOAii7FnKSVm7ajAz4z6JG2ZQO+HuXX03wS/LRc17Uu1rPPPhsc7ZcPeuKJJ76LK/1qJYJ+hTLot5EA/EFB3IA2mEs1a9bsSZulS6lkXVOnTrUWwJamqHp07iAkoNYK8BNfkU3NUVvVLCALbByAzcFj99pzb0Zx2VLd88y1V11rzcS7bJPSQ+apJ58yLzz7vHnpxZcjef65F6JJuw8/+LC55657IsuC5xxlT4jdd699KWNmxLd9/eoM40TrcB+QAwyXRpSSBJoEoZ8YdNFBLmbuISGgl2a+H/gdcgG+kuLTwb9FXORT106hbmqvv1U6hpVDxJ9s1M/ly5ffMVZm7OESJei3kQBEUNBNEWpopW18wEi/rym79BUKKUy9YMEC02O//TmiiY0hugiV/gFux5uKTUuUv0HdBtHpRVEQMA4SMp2XdBzzCiANpJ69TcCOgCKjokgFVrURZQKGtYtqkx5Ew0tgcN+JABKiEAIi5hhKotDFPcf/2u10wMvindw1fmpFn6r1E+D3m/woBATy5W/jJ0zw7Ckd/B999NHv1atX35eYVgz+Big0WeyzkQDCMwON4gtZpUWLlifNmDFDkEB4YHCldSFOOfnUCLDt7AbfUisdlkSQOIZMlBGzKV1NQEJzOzA4AIhNLiYQiVoCSQgeUoiA5yUE+btQaaeK+98S8Lqml6AP1Ph50PrI5nKIJ88nzceUJer0g0EvC31wN4uLiw+K925bFJiI+Au/fyMBhGQG8KEaxyRQtW3btmcwSESQQCa6vnXgQDQyB22kkwDiIwGFCJC02gHEX0MgC4qkSDKQhOC3FBB32/UoBIsjMcSv3SXgdU0fDPwM5n6gyS/TfGQ6aCs/44wzgwZ3rvaA33a0mjp16h6eAD+Kq5j7Cvg3EkBgerBJHBis2qZNmzOwBPyBQf2Ls2cUUOlGkK20uEBpfQSCCDoHE0EHhQh0MtAtBD8p6LKp+ylue0x6DfTStxfSUTX1deAjXYOj/HzfFPjQIYkbRvpWw74y1ceCv84RCfA3BvyizLfcRgLInQQKXN+0swRsO+WpU6ZMyTkmwIJE9txjzyguwEbslmoNpLgEgW6BnwjyRQYKKThp445CDxf3PB3g4ea90Pbhpr4AvwC+qOX3a31n8vP3Qhu7gbQ//vhjT1FZ2NT6kSNHrrJm/yEC/LXCwb+RAIJqBNJIoFGjxv8YPXq0lwT0RVxgpblowEVU91EzYFOFlgQia+B/XYKyuQVIJ909UMhAJwSFJMRtFeD5AjyyqRrY82t8WcaLdArQ+qKVl4rGqhWrRsVcixYtNLmt1a7OZHlBQUHPGOzt8gj+jQSgkECTmG2rFRfXOsyeIbgi7GtzIhflwy9FU3+KqhexqWSWIH9EgEgiUMkA6aAIIPyrRPrxupZHOqr+vd/UR7IAX0b5Mfsp08bsv/eeexUbUV/PPffc4kqVKu9Bbj/f4N9IAOEk0I77lStX3uuZZ57R5zIpvsHcuXNNv779SO0xI2+NNdBFiw2EEEEGMhBg6RBsHQhpmxQx1iyyJBAH6EjcY9Y8r10WkYCX0smn7XMEviznTdf6pDIJ9O2+6+5m7LhxXtiHOgD33HPPt3bfdbdS5AF/vtJ9GwlAIQEufLv4i9jqjkF3zMhQteEl/0ceeYQCGKwBNmPSGgh3C8pABEhHnRCEAMC8i67ZdS2vgz5HjS/n9SVr+bew3xm30fr165aY66+7Xgd4gKK47PLLv7R7bdMY8Oy9RuGafyMB5JMEqieOUWoX11m3Offccz+SUdqgfiI5amz27OgkopoFNaNinW6YkS42kCsReNwD3TKQhBBKCkgH4UpICyJBHsnHbKoAXdHwEvTZtD3S1aPxNXOfI7q2YuR5VO+xj622JE6kLiXST+n2UUcd9VKsdEpcnt+l+iT4NxLAX1sn0DDxhZT07NnzsV9++UUnAd0rYPQTpxFRuUdtvLQGdCJAFCJAJBF4yMBDCogEoxAHXAHiFDArIFfArgBe9ub7AnsO+KqfL87m430T4W9rexfuu0+k93IE/3fffWd23HHHQe6MS1fhtw5SfRsJwEMCxfEX0tqNG+/UqdMVE2RJZ44s8OuSX83VV19DhxgWAQAQRKAECkPdA7+bIKSTTgp+y0G4FZ3cT0Sa7QLoGuDd+9PMe2nie4DPdVOAj7nvUnu1rblft7huNChl7vdz9S9YXwz+XNW0adPTYrezpRvoISv88g/+jQSgkoAoG64Zm2YtY4YuKCqqcciTTz5JcDAvRDB5ymRzwj9OZOIQ9f1s4pyJQHURdOtAIQVdOqaRh+fvAugK2HXQY+Lr2t4PfMR1dhLZp46/14G9OTouGPbauvvuu2fZbtQ9YvC3i1t761kpWvfg30gAkgSqxh1XdeOpQpvGpNDVxgVGUTGougSBZxTatKM5qHcfq3Fq0ezDBtaJIAcy6KwTQhA56JLU4J3Ux3f2gj0V8EJ8oM8GfK41pxrThLXrzruSljOsfJj8nDdxzDHHvIFFGQeb28f1J3VcV59e3ruRANZFAxFfTGH8RTWBBGLXoMSewXYXJ+uEa3z9D6+8+qo5oMcBlJNiFUiLINAqQLpKMvASgl8AYaD4Aa2DPBTsil+vg176+Bb4m3eLfueA//ftdzSPPPwI5eDKtxae6Pvss89M586dr4xjS00SkX6IoMC19ErwbySA9S9N6IKDbWK/rcDOFTjy4Ycfnm+CVjgRvPTSS6anHeRRr1Zd0k4EotBSrqJQswrCySACkx9onUOkA8LtNEBzW3+NLjrYBeAVv16m8kRwj5Qe/7ekTv2oYnOXnXaxJ/E+5Eau5WryS4uQuX/f2OKe/dgrbt+IYF9lkePfSADrKQlUEnGBTTDj4i+yY79+/V6dPz/vPGDeevMt0/fIflFJcc3CmsyUYwNDBrpVoLgJkhSEuDMOchId3DrQka6Klneg17Q94q4bpcluzsL+dp7DU08+aVasXOEZDhvlc8OQL3pC9t13v0cTY7vYK83jvVMUkubbSADrf1zAuQT8LG7WrNnZduTTL1kwj+ijYJnV/wVTfyLNWkQdQUkjbgsiCCUDhRAQAUApWA3++108Lof4u6LZBeCFCE2vgJ7Xada4WRTYY2DrCcefQN29zsU5rCFDhsyznXzHxvtkE1fZ5/z99T/Yt5EA1LiAcAlaQQQxs29hizteZ0AnK98mAfnjO++40+y3z74UE3GIKdOEKB2mYIUN77EMJCEopBCBzg9KjSy65iSb+YEupYsP9MgW1Onze4aQ0p5NhsUOQ/27ufaaaw0dn3LlgwB43QMOOPDJeC8Ux1ofC6BBvFcKnMm//oN/IwGEVg7WjNM4zeIvHGugVv369U8ZPHjID1kAvzpjdHnEeyNM//P6c5w05ixHSzOPADAlLAO/deC1EMTtIOmEJOMN7r4VvxYPBLsCeAF6Ro9xPRjQguVx8kknE1PhMA0F7bmBn7jBzTffPL2oqOjIWAk0j0mgKXtDmPzC399IABuCS1BIRDeO7LZOxAY23X2PPYZ++umnJvelb8wfF/9onnn6GXPqKaeare0E2hKbPahVoxYnzkapuM26RqZwLD4ykKQgiUGXroi8HSwC5Crg13wm4gyY9RTtQIIEHo85+hjzkB2oSjOWvnIH/zvvvrvSntBzG6Z+wtdvGVuGteO9UcVj8m8kgA3AJZDWQEmiZqAF7G8LP/Y788wzP+bknvAVnkKUg0oZPX3+eeebXW1ku7klAciAYaIMCiVu4MAj3QUpfmJI3he/T/rlOrADgI6sIS9uE0ugsapBvYaRlm9o4yHbdt8uIsD/PvLfqOfiT16Y+y6vvxN+fewGtpNaf0Mx+TcSQEAJsbAG3LmEHeIyzxLcAkxFDu3M3QII11RLly4xH37wgZ1XeKs5qt9R9B9wPJmrMeBAUSLi+OyALyYD6TbospluUcjH+aVrLLE538W6ETQVEeeAxDjQhKPLeOwhBx9irrHl1BzguthaQQEh17JqfAZ80r03zpr7/RLdox2cr69r/Y0EsKGSgLQGihKZgjaJds+W7du3/9eQB4bMX758WR59An1Lz7Ob96233ooI4aQTT4p62QFXIwsozGf85sb1OdasFaO7sBbw45PAFW6EuN1F3nYiLA1Rx4CrgBnPPAGm65DypBoSc56TmTlAhADesUcfG7XgvvzSy2bWrFnhJ7zlYf3888/m9ttvn9m8efPz4u+0bmzut4YEuO/R+vraSAAbFBHITEExFkDCLWgTuwqdttpqq5seffTRxRzsWfa1OvOGX7pkqRk7dqwteX3e3HzTLfZI8DNM7569zQ7b7mAbdjqQNgOAEIONoteNDkfF3AagzZtsAlEQZbdBNzfSW0h8bgCPITjZ3DY+cdQ42QsKcHhNovNo9sYNG/OcKKD5/9i7upim7igeiA0fwrBFaGFzchELlNUGgmiImW5dyCI4ksH4aJaxmS2Lzgd42KTAYBDcZAETNlrDwzKXmVAN8YVMQjSZW7YXllGtJEymjAFNwDkCEcWweP87pzlNTm5wH+Zam3pvch56b4HeS3+//+98/M95BXLzh949JI5/clzAvgtMgQIAl/8fH6oI/P7+/nkg7XYC+yawbCb3U+ncxghc9TUCUCFTEAeWGHQLWAHRNiKC/KKiXT1Qhfbn7ZUVoeYhKwXwf/wZnC/o8/nEyMhIoCz2RM8J0exsEkcOHxGOGocoP1AuSuwlYk/xHhqXnh/I7VvZNmOr5TmMwFOr7EJRvLtYvPSCPQDu6teqAwqk8Wij+LSrS5w69RVOX0agY5rzobsyq0kPi4uLwu0+6c/Ly+tgQd2gktuqkPux6kf4NQKINLcgjiRiMmULJDALIwKb1brjWF9f3+zCwoJ45If80L1ssGouMMdwfn5eTE9Pi8nJXwVukx4fHxdXfVdBVaCNB87hXgmsisNo/NLyEqbM1GU2lQ+cD9HV1TWZlZXVpAB+LpF3GivoUT/IpxFAZLsFLFuwmRFBLpOXuehnNjc3jwGQQo8OWYTgUMF5l9X94KOjo6K+vuEHCNS+R6SsBzOzYp40+p8lsRr+SJD7GgGEPltA8YH1icBMK8yWhISE1x0OxznYlnqXuhGpha9/x478gLyDrALgZPkf8U710Y+cnbCF98DAwDJ0ezodExNTQSBPAcshywBLZwG++ND7+RoBRGjtAKUNFUTAasdzmdx8Pj8//+P29nYfToyRZTnkC3KkHGtrf+GwTeF0OkdzcnJa4dnuVqTzzOTjK1f8GLU272gEoB1RfJdh0DVgMYI0yhpspy9lJn1Jpfj4uNqysrIv3W733MTExOMHuRzmREODWq5cviK6u3uu2+12t06ne5U148iiZ5xFz9xE5xUrfhik9TQCiNyMAY8RsKyBkXLOmSRJc9mush0GQ/I7FRUVp90u1yx0qaUAW/hLgVCIi9XVVYEl2FB4db20dP8XiYmJb9AzNBD4LfRaYl159WCJmtTXCOCxBgtZ1iCBAoMpTBUEV6xsJlNtTyUlvVlSUnKyo6PjMlTG3ccI/ZN2+Of84vz5b9ZaWlpG9+7d1wsz9R30rJIJ5DksBfssl/n0rOPCK7inEYBGBBQnYO5BKn2ZtzIXge833x4VFVVmsVha6urqzvX2fnbj0qXvRKQRAtYK4N6KCxcv3O/u7v4FgqVnYcJzI9z/y2CZwUAqA32wu3M6EapeIfN1GvA1AgjPOAG5B0wVJCnJILgLkUyiayYw24YNugqr1fphTU2Np7Oz0zs4OHjbO+aFuvZbFFAMf7DfXLgpfobeeh6PZ6mtre2nysrKryGI54yOji7HqkowI1lmUN5z0NPzSF53tacCHg34GgGEuypQBg2VZJBO0jaT5bCD6SwjGb626/X6g4WFO48BKQw0Nh79Ecpdfx8eHl7zer2BlfXOyp2QkgP+LUx1zszM4Gx83L9/z+VyTUH35e8R7AUFBR1J4ObAZ99HyieV7kdiq7yZ7p3k/Tqgp9U+Eop3NALQXAQdVwYkaQ0kcU1MHWwLEgKTw88QgEx0fRfYgZSUlLdhAEoLxBNctbW1ZwGA32JcAfrZ/wZ1+beGhobuoUuBIMXKv2vXJsXU1FSgInB2dk74/X4kEKyow3N4DasB8b3YHRfbcOFkpLueM2f+AIDfgNTmWENDw8WqqioPROg/B9elyWAwYDut/WCFBGgj2RZWlacE/NN0L5uZvCfQaxJfI4BIJIIHk8FGimZvUhICgUUiEshWgEkiYjCRpRM55IEVgdnByiC4Vm00mg7CdJvDGRlSPZTNvg/+dxPUzbfabLaPgEBazWZzM5xzwrUPJElqwPdCld1bsbGxVfA7SsFeBNvJ0px/t2M2PQkDYRhMVAxBQAQpVCI2bRH9/39QDtPkyUZJPBijzJvMgdD96OGZd7s1a9YEvf1kfx173LO3Le+2pMvPePexnf6SBeBnQl4gphDuCctj3BE8EbiG0PWEbQjfGxz5r+XZZ2SxY476DDueLdc5xvH9nd+HWOeFcUPYq+jwGfihy+c3vaFXAF4gAkLghMD9QUjhoRRDGVzC2NCBO+gJ7MBrwQF66E60zNEw5z5EUhdBXxVhn7L38VeBhyxLASiE8oSQUsiTQohhTvAWIYgVwVyfqGATbAs2QQXrCPeSuResNY+uPmFPGfaRHV4BWD8gBbghZLcphxDEBO5gGswSmCYxblIGPEOeQbe7KwDrl8QQpCCS0TfJsdfBlSFXANbfFsZ5LAUgIv8bBSByASgAEVEAIqIAREQBiMgHGWZeq7XdKJAAAAAASUVORK5CYII=;" parent="1" vertex="1">
          <mxGeometry x="1320" y="173.5" width="83" height="83" as="geometry" />
        </mxCell>
        <mxCell id="TxX2gqwojOcQ7HW4MR1k-43" style="edgeStyle=orthogonalEdgeStyle;rounded=0;orthogonalLoop=1;jettySize=auto;html=1;fontColor=#000000;startArrow=ERmany;startFill=0;" parent="1" source="TxX2gqwojOcQ7HW4MR1k-51" target="TxX2gqwojOcQ7HW4MR1k-36" edge="1">
          <mxGeometry relative="1" as="geometry">
            <mxPoint x="1040.0000000000005" y="340" as="sourcePoint" />
            <Array as="points">
              <mxPoint x="1250" y="392" />
              <mxPoint x="1250" y="215" />
            </Array>
          </mxGeometry>
        </mxCell>
        <mxCell id="TxX2gqwojOcQ7HW4MR1k-44" value="Video" style="edgeLabel;html=1;align=center;verticalAlign=middle;resizable=0;points=[];fontColor=#000000;" parent="TxX2gqwojOcQ7HW4MR1k-43" vertex="1" connectable="0">
          <mxGeometry x="-0.0299" y="-1" relative="1" as="geometry">
            <mxPoint x="-22" y="-1" as="offset" />
          </mxGeometry>
        </mxCell>
        <mxCell id="TxX2gqwojOcQ7HW4MR1k-49" value="Steam Deck" style="shape=image;imageAspect=0;aspect=fixed;verticalLabelPosition=bottom;verticalAlign=top;dashed=1;labelBackgroundColor=none;fontColor=#000000;fillColor=none;image=data:image/png,iVBORw0KGgoAAAANSUhEUgAAAQAAAAEACAYAAABccqhmAAAACXBIWXMAADsOAAA7DgHMtqGDAAAAGXRFWHRTb2Z0d2FyZQB3d3cuaW5rc2NhcGUub3Jnm+48GgAAHaFJREFUeJzt3Xl0VFWeB/BvLanKSsgCAoIkhCXYBOgEUAja2YTgdGhZ7bEhot1GGHuGxpnTzOj0EbvbadtuHBa7JYHplh0SFWhBtkCCTWUhQZKAweCSBUgIWcheS6rqzR+KB9Nglnfvu1X1fp9z7jn+w31fq/K+dV/VWzQAJBBCVEkrOgAhRBwqAEJUjAqAEBWjAiBExagACFExKgBCVIwKgBAVowIgRMWoAAhRMSoAQlSMCoAQFaMCIETFqAAIUTEqAEJUjAqAEBXTiw5AxJIkCZ2dnbDZbACA1tZWOJ1OtLS0oKGhAU1NTd+MhoYGVFdXo7KyEpWVlTCbzYLTE7k0oBuCqJokDfztr6+vR1VVFa5cuYKLFy+itLQUFy9eRF1dHcOEhCcqAJWTUwD30tDQgNLSUuTn5yMvLw/5+flobW1lvh0iHxWAyvEogJ6cTic++eQTnD17Fjk5OTh58iRaWlq4b5f0jgpA5ZQogJ4cDgdKSkqQnZ2Nw4cPIy8vD06nU/EchApA9UQUQE/Xr1/He++9h6ysLJhMJpfIpBZUACrnajtbTU0NsrKysG/fPhQXF4uO4/GoAFTO1QrgTpcvX8b27duxbds2NDU1iY7jkagAVM6VC+A2s9mMrKwsZGRkwGQyiY7jUagAVM4dCuBOFy5cwIYNG7Bnzx7Y7XbRcdweFYDKuVsB3FZVVYUtW7YgPT2dflKUgQpA5dy1AG5rbm7G+vXrsWnTJnR0dIiO43aoAFTO3QvgtqamJvzhD3/A5s2b0dXVJTqO26ACUDlPKYDb6urq8Nvf/hYZGRn0HUEfUAGonKcVwG0VFRV48cUX8eGHH4qO4tKoAFTOUwvgtuzsbKxevRrl5eWio7gkuiEI8WhJSUm4cOECfvOb38Db21t0HJdDKwCV8/QVwJ2++OILpKWl4fTp06KjuAxaARDViIiIQHZ2Nnbs2IHg4GDRcVwCrQBUTk0rgDtdu3YNTz/9tOpXA7QCIKo0cuRIZGdnY+PGjTAajaLjCEMrAJVT6wrgTpcuXcJTTz2Fixcvio6iOFoBENWbNGkSCgoK8PTTT4uOojgqAEIA+Pr64p133kF6ejoMBoPoOIqhQwCVo0OAf1RcXIzFixejurpadBTuaAVASA/Tpk1DQUEBYmNjRUfhjgqAkLsYNmwYTp06hZ/85Ceio3BFBUDIPRiNRuzcuRPr1q0THYUb+g5A5eg7gL75y1/+gpUrV6K7u1t0FKaoAFSOCqDvPvjgAyxduhQWi0V0FGaoAFSOCqB/zpw5g5SUFLS3t4uOwgQVgMpRAfRfUVERkpOT0dzcLDqKbPQlICH9NH36dJw4cQIhISGio8hGKwCVoxXAwJWUlCAhIQG3bt0SHWXAaAVAyABNnToVR44cgb+/v+goA0YFQIgMM2fOxMGDB932dmNUAITIlJiYiMzMTOj1etFR+o0KgBAGUlJSsGXLFtEx+o0KgBBGfvrTn2Lt2rWiY/QL/QqgcvQrAFuSJGH58uXYvXu36Ch9QgVA4OfnB4PBAJ1Oh5CQkG/GkCFDEBYWhrCwMISHh2PChAkYMmSI6Lguz2KxIDExEXl5eaKj9IoKgPTL8OHDERUVhalTp2LmzJmYNWsWhg4dKjqWy6mrq8O0adNQW1srOsp3ogIgso0fPx7x8fFITk5GYmIiAgICREdyCSaTCfHx8S5/BaFEgwarYTAYpKSkJCk9PV1qaGiQ1G7z5s3C35NehvAANDx06PV6ae7cudLevXsli8Uiel8UZvny5cLfi3sNOgQgiggNDUVqaipWrVqFsWPHio6jqM7OTsTExKCiokJ0lLsS3kI01DO0Wq2UkpIinTx5UvQHs6LOnz8vGQwG4a//XYbwADRUOh555BEpNzdX9L6pmNdff134a36XITwADZWPxMREqaCgQPT+yZ3D4ZDi4uKEv949hvAANGhIGo1GWr58uXTt2jXR+ylXNTU10qBBg4S/3reHDsA6EOICysrKkJ6eDq1Wi4ceegg6nU50JOYCAwMxePBgHDlyRHSUbwhvIRo0eo6oqCipsLBQ9Ac2Fw6HQ5o9e7bw1/jrITwADRp3HTqdTlq7dq1ktVpF77PMlZeXS0ajUfxrDDoEIC5KkiSYTCYcPXoUP/jBDxAaGio6EjNDhgyBJEnIyckRHUV809Og0dvw8/OTtm/fLvqDmymLxSJFRESIfm3Fv7k0aPR1pKWledQhwYEDB4S+nnQqsCfS6qAPDYd+2Hjoh0dCN2w89KFh0PgEQmP0g9boB41vEDRGPwCAZO2E1HULTmvnV/9tboW9sQqOG1dgr/sU9hsVsDdWAU6H2P+vr82aNQsHDhzwmMuQk5KScOrUKSHbpgLwABqfQTBO+AEME+NhnBAH/f3fg0ZvYLoNyW6D/folWD/Nhe1yDqxXPoJkbmO6jf4IDw/HkSNHMHHiRGEZWCkvL8eUKVNgt9sV3zYVgJvyGjUZPg/9GIaJCTCETQO0Cv9m7rTDVnUetvJTMBfuQ/e1i8puH0BQUBAOHjyIRx99VPFts7Zq1SohNxWlAnAjWr9geE9fDN9ZqTCMixUd51vsteXoMu1Al2k7nK03FNuu0WjE/v378aMf/UixbfJQV1eHiIgImM1mRbdLBeAGjA8mwW/uGnhPmgNoXfze8047LJdOoPP4m7CWK3NcazAYsHv3bixevFiR7fGyZs0abNiwQdFtUgG4Ko0G3lN+CP8fvgRDxMOi0wxId/UFdBz5HczF7wKc7z6s1+uxf/9+LFy4kOt2eKqvr0dERAQ6OzsV2yadCORqNBr4zHgSQSv3wH/OL6ALHik60YDpBg+Hz/Ql8I5+AlJHE+x1l7lty+l04uDBg4iOjsb48eO5bYcnf39/tLW1wWQyKbZNWgG4EP2wCQhc/haMDyaJjsKF7crf0bLjX2C/fonbNnx8fHD8+HE88sgj3LbBU1NTE0aPHq3YKoBWAC5AY/BFQMrLCHp+D/T3jRMdhxtdyGj4xaVB6x8K22cmwG5jvg273Y5Dhw7hiSeecMtTh319fVFfX4/CwkJFtkcrAMG8p/wQgU+/DV2Q+y71B8LRfBWtO1bBUsrnstjw8HDk5+fjvvvu4zI/T1VVVRg3bpwi5wXQswFF0eoR8MQ6BK8+pLqdHwB0waMQvPoDBD61kflJSwBQWVmJhQsXwmZjv8rgLSwsDAsWLFBkW7QCEEAX8gCCVu6DYexM0VFcQndVMZr//CQcDV8yn/uFF17AW2+9xXxe3oqLizF9+nTu26HvABTmHf0EQv79mEcf6/eXbvAI+M5Khb3uMuw32N46u6ioCBEREZgyZQrTeXkbMWIEsrOzcfXqVa7boUMABfklvoDgn78Hre9g0VFcjtYvCMH/ehD+c19kPveqVatc9p783+W5557jvg06BFCI/+NrMWjJ66JjuIWOD3+Ptqz/ZDpndHQ08vPzYTCw/76BF7PZjPvvvx+3bt3itg06BOBNq0Ng6tsI+Ce2f9CezDBuNnShYV/9QiA5mcxZV1cHu92OpCT3OcfCy8sLNTU1KCoq4rYNWgHwpNUhaOVe+ExfIjqJWzKfy8St9KeY3YdAp9OhsLAQMTExTOZTQllZGdfvL+g7AF40GgxOfZt2fhl8ZizF4OV/Zjafw+HAz372MyHX3Q/U5MmTER0dzW1+OgTgZNCi1+A35xeiY7g9r7AYQKOF7dNcJvPduHED/v7+iI11rcupv0tbWxtOnjzJZW46BODAL+FfELj8T6JjeJTWPb9A58mNTOby9/dHRUUFRowYwWQ+3q5evYrRo0dD4nBFJR0CMOYd/QQCl20WHcPjBP7zm/CemsJkro6ODrz00ktM5lLCqFGjMGPGDC5zUwEwpAt5AIOf/T9AQy8rcxotBv9sO3ShYUym27lzJ4qLi5nMpYQnn3ySy7z0l8qIRueFoJX7oPULFh3FY2n9ghC0aj+TawecTidefvllBqmUsXjxYmg0GubzUgEwMmjpG3RuvwIMY2YgYOFvmcx14sQJnDlzhslcvI0aNQqTJ09mPi8VAAPeU1Pg99hq0TFUwz/5P+A9+XEmc61bt47JPEqYN28e8zmpAGTSGHy/+tKPw/KM3INGg8Cnt0Bj9Jc9VW5uLvLz8xmE4i85OZn5nFQAMgUs+DV0IaNFx1AdXfAoBKSwOYZ/8803mczDW2xsLAIDA5nOSQUgg/7+78HvsX8THUO1/Oa+CP0I+U8GOnDgAD7//HMGifjS6/VITExkOicVwEBpNAhc9hY0Oi/RSVRLozdgcOoW2YdfDocD6enpjFLxlZCQwHQ+KoAB8pm+FMbIONExVM8w4VF4R8u/fdY777wDq9XKIBFfrE9hpgIYCI0G/oyOP4l8AfN/JXsV0NjYiL/97W+MEvETFRXF9HsAKoAB8J46H14jo0THIF/zemAqvKPk/0T217/+lUEavnQ6HR566CFm81EBDID/478UHYH04D//V7LnyM7ORlNTE4M0fLE8DKAC6Cfjg0kwjJ0lOgbpwRDxMIwT42XN0d3djQMHDjBKxM/MmezOOKUC6Ce/uWtERyD34MfghqJZWVkMkvDF8pRguh9AP2gH3Ydh/3vN9R/RrVZOO26sGQlnW/2ApzAYDGhqaoK/v/yzDHkaNmwY6usH/v95G60A+sF31jLa+V2ZVg+fh34sawqbzYacnBxGgfhhtQqgAugHn1nLRUcgvfBl8B4dO3aMQRK+oqLY/ApFBdBH+vsnwWuUez1dRo28wmJk/0R7+vRpRmn4oQJQmO/D/yw6Aukjb5l3Yq6oqEBDQwOjNHyMHz+eyTxUAH1keNB9HiihdsYH5V0wI0mSy18iHB4ezmQeKoA+0PoEwhDmPg+TUDvDmBnQ+AySNUdeXh6jNHwMGzYMPj4+suehAugDw4RHAa1OdAzSV1o9jONmy5qirKyMURg+NBoNRo+Wfx8KKoA+MMg8w4woT+575uoFAABhYWGy56AC6APjhDjREUg/GSPlFcD169fR3NzMKA0fVABK0Oqgv/9B0SlIP+lHTpJ92FZRUcEoDR9DhgyRPQcVQC/0oeHQ6I2iY5B+0uiN0IU8IGuOqqoqNmE4CQkJkT0HFUAv9MMniI5ABkg/TN57V1lZySgJH6GhobLnoALohdw/IiKO3PeOVgCECsCNyV293bx5k1ESPmgFoABdKN3z313pQ8Jk/XtXvzvQ4MGDZc9BBdALjQ/bBzEQ5cg9G7CxsZFREj4MBvkPSaUC6IXW27VvDEHuTeMdIOvft7S0MErCh9Eo/9cpKoBeyP0jIuJoZb53rv6cAFoBKIAKwH1pfDy7AGgFoAAWT6AlYsgtbyoAQohHowLohWTtEB2BDJBkaZf171l8wvLEYoVCBdALuX9ERBzJTAXQGyqAXlABuC+nh68AbDab7DmoAHrhlPkpQsSRW95BQUGMkvBBKwAFSJY20RHIAElmee8di4tteKICUICjsVp0BDJA9qYqWf+excU2PLE4U5EKoBf2G659Vxhyb/Y6ee8dizvu8MTiYiUqgF5QAbgvue8di3vu8cTiYiUqgF7Y6z4VHYEMkNz3jtXDN3ihAlCAvbEKkt21Twkl/0jqtsDRfFXWHK6+AmBx12IqgN44HbBfLxedgvST/fongNMha47IyEhGafhg8fxCKoA+sH7q+s+LJ99mvSzvCb+jRo1y+fMAWNyzkAqgD2yXqQDcjdzSZvX4bZ5Y3LWYCqAPrBVnAKdddAzSV047bFfOyppi8uTJjMLwIUkSqqvln6NCBdAHkqUdtqrzomOQPrJ9USj7NOBZs2YxSsNHXV0dLBaL7HmoAPrI+km26Aikj+Qe/2s0GsycOZNRGj5YPbOACqCPzIV7RUcgfWQ+lynr30dGRrr8acBXrlxhMg8VQB/Zr3+C7poS0TFIL7qrimG/fknWHAkJCYzS8FNaWspkHiqAfjDn7RQdgfSii8F7lJyczCAJXxcvXmQyDxVAP3Tl76JfA1yZ0w5z4X5ZUxiNRsTFxbHJwxEVgADOtpuwXDohOga5B0vZUTjb6mXNERcXB39/174TdH19PbPnFlIB9FPn8TdFRyD3wOK9WbJkCYMkfLE6/geoAPrNWn4Kts/zRMcgPdi+KID101xZc3h5eWHBggVsAnGUl8fu748KYAA6jrwuOgLpof1vv5Y9x5w5cxAcHMwgDV9UAIJZSg+ju/pj0THI17prSmC9eEz2PCtWrJAfhjOHw4GCggJm81EBDIQk0SrAhbQfehWQJFlzhIaGIiUlhVEifkpLS9Hezu5O1VQAA2QufhdWukpQOFvFGVguHJI9zzPPPOPyzwEAAJPJxHQ+KoCBkiS07vo5JEe36CSqJdltaNmxSvanv06nw/PPP88oFV+nT8u7zqEnKgAZ7LXl6DyxQXQM1eo89kfYay/LnmfRokWIiIhgkIiv7u5u5OSwXXVSAcjUfnAdHI1VomOojqOpBu2H/4fJXGvWrGEyD28mkwmtra1M56QCkEmydaF1189lL0NJP0gSWrY/D8naKXuqhIQEPPzwwwxC8XfsmPxfOnqiAmDAUnoEHXSGoGI6jr7B5Gc/AHjllVeYzKOEo0ePMp9TA4A+uljQ6hH6X2dgGOvad5Jxd7YvC9H0P48w+fI1OTmZy07FQ01NDcLCwiAxXmnSCoAVpx233v4xnB3yH9dE7s7ZeQu3/vwkk51fq9XitddeY5BKGVlZWcx3foAKgClH81W0/OVZQHKKjuJ5nA60ZCyDo4nNw1qfeeYZREdHM5lLCfv3y7vM+V7oEIADv/iVCEx9W3QMj9K6+9/Qmb2ZyVwBAQGoqKjA8OHDmczHW2VlJSIiImgF4C46c7ag/ZD8i1PIV9oPvsJs5we++uLPXXZ+AMjMzOSy8wO0AuAq8Ceb4Jf0r6JjuLXO3HS0bl/JbL6YmBgUFBRAr9czm5O373//+ygp4XM/SloBcNS6d43sO9SqmfncfrTufIHZfHq9Hunp6W61858/f57bzg9QAfDldOBW+lPozNkiOonb6Tr7V9xKXyb7AZ93Wrt2LWJiYpjNp4Rt27ZxnZ8OARTi//haDFpClxD3RceHv0db1n8ynTMmJgZ5eXkwGAxM5+XJbDZjxIgRaGlp4bYN91kLubmOD38PydKOwGWbAQ0tvO7K6UDrrp8zXzH5+flh9+7dbrXzA8C+ffu47vwAHQIoqvP0n9G86Qk4O5tFR3E5zo4mNG+cz+VwKSMjAxMmTGA+L29bt27lvg06BBBAFzwKQSv3wjAuVnQUl9BdWYTmt5+Eo0H+4657Wr16NTZscL9LtouKijBjxgzu26ECEEWrR8D8/0bA/F+p95BAktCZvRlt+/+Dy41VZs+ejdOnT8PLy4v53LwtWbIE7777LvftUAEI5j35cQSmvg1dyAOioyjK0VSNlu0rmV3V11N4eDgKCgowdOhQLvPzVFlZiXHjxsHhYPcLyL2o9KPHdVjKPsTNlyai/dCrkOxW0XG4kxzd6Dy5CTdfnsRt5w8ODsbRo0fdcucHgPXr1yuy8wO0AnAp+vvGIXDZWzBOmiM6Che2ijNo2fkC7Nc/4bYNX19fnDhxArGx7vn9SkNDA8LCwtDV1aXI9mgF4ELs9Z+haf1cNL+1CN3VF0THYaa7+mM0b16AxtfjuO78BoMBWVlZbrvzA8Abb7yh2M4P0ArApRnGzUbAgldhnOj6z6u/G9vneeg48jospYe53zJNr9cjMzPTLR7tdS83btxAREQEFQD5NuPEePjNfRHeUcmA1sXP3XLaYbl4DJ3H31TsuQkGgwF79uzBokWLFNkeL6tXr8amTZsU3SYVgBvR+gXDe/pi+M5KdblzCOy15egy7UDX2XdkP6K7P3x9ffH+++9j7ty5im2Th9raWowdOxZms1nR7VIBuCn9/d+Dz4wnYXwwCYYx05VfGTjtsH15DtZPsmE+tx/22nJltw8gJCQEhw4dcutj/tvS0tIUOfOvJyoAD6DxDoBx/CMwTEyAMTIO+pGToNGzfcyVZLfCfu0irJ/mwnY5B9aKjyBZO5huoz/GjBmDI0eOIDIyUlgGVkpKSjBt2jTFfvq7ExWAJ9LqoAsZDf2w8dAPj4R+2AToQ8Og8RkEjdEPWu8AaHwHQ2P0BwBI1g5IXS1wWtohWTogWdphb6yEva4C9htfDUdjtcvc63D27Nl4//33MWTIENFRmIiPj0dubq6w7Us0aLjLSEtLk6xWq+QpsrKyRL+m4t9UGjR6G/7+/tKuXbtE769Mmc1mKTw8XOjr6uK/KRECzJgxA7t27cK4ceNER2Hqd7/7HSorK0XHEN/uNGjcbej1eumll16SbDab6A9r5i5duiQZDAbhrzFcIAANGv8wpkyZIp07d070fsqFw+GQYmNjhb/GXw/hAWjQ+GYEBARIf/zjH6Xu7m7R+yk3mzdvFv463zGEB6BBQ9JqtdKzzz4r1dXVid4/uaqqqpICAgKEv953DOEBaKh8JCcnS+fPnxe9b3Jnt9ulRx99VPjr3WMID0BDpSMhIUEymUyi90vFvPbaa8Jf87sM4QFoqGhotVopJSVFysvLE70/Kqq4uNhVvvX/1qBTgYkihg4ditTUVKxatQpjxowRHUdRHR0diI6OxmeffSY6yj+gE4EINwaDAY899hhWrFiB+fPnu92DOVhJS0tzyZ0foAIgjBmNRsTFxWHJkiVYsGABgoODRUcSauPGjdi7d6/oGPdEhwBEFo1Gg8jISMTHx2PevHmIj4+Hn5+f6Fgu4aOPPkJSUhK6u9k/84AVKgDSLyNHjkRUVBSmTJmCmTNnIjY2FiEhIaJjuZza2lrExMTgxo0boqN8JzoEIAgICIBer4eXlxdCQkK+GUOHDkVYWBjCwsIQHh6OyMhIBAUFiY7r8sxmMxYuXOjyOz9ABaB6Eue79aqN0+nE8uXLUVhYKDpKn9BzAQhh6Je//CXee+890TH6jL4DUDlaAbCzdetWpKWliY7RL1QAKkcFwMbBgwexePFiITf2lIMKQOWoAOTLzs5GSkoKLBaL6Cj9RgWgclQA8uTn52POnDno6BB3i3Q5qABUjgpg4EpKSpCQkIBbt26JjjJg9CsAIQNQVFSExMREt975ASoAQvrt73//O5KSktDc3Cw6imxUAIT0Q05ODh5//HG0tbWJjsIEFQAhfXTgwAHMmzfPbb/wuxsqAEL6YNu2bVi6dCmsVqvoKExRARDyHSRJwquvvornnnsOdrtddBzm6GIgQu7BarVixYoV2Ldvn+go3FABEHIXtbW1WLRoEQoKCkRH4YoOAQjp4ezZs5g2bZrH7/wAFQAh35KRkYGEhATU1dWJjqIIOgQgBF/dujstLc2lb+DJAxUAUb2ioiIsW7YMV65cER1FcXQIQFRLkiRs2rQJs2fPVuXOD9AKgKhUdXU1UlNT8dFHH4mOIhStAIiqSJKEjIwMTJ48WfU7P0ArAKIin332GdLS0pCbmys6isugFQDxeBaLBa+88gomTZpEO38PtAIgHu3w4cNYvXo1vvzyS9FRXBKtAIhHunz5MpKTk5GSkkI7/3egAiAe5dq1a0hLS0NUVBSOHz8uOo7Lo0MA4hEaGhqwfv16bNq0CWazWXQct0EFQNxaY2Mj3njjDfzpT39CV1eX6DhuhwqAuKXKykps3LgR27ZtQ2dnp+g4bosKgLiVjz/+GBs3bsSePXs88g49SqMCIC6vq6sLmZmZyMjIQH5+vug4HoUKgLis8vJy7NixA1u3bvWIe/C7IioA4lIqKyuRmZmJffv2oaSkRHQcj0cFQISrqalBVlYWMjMzce7cOdFxVIUKgCjO4XCgpKQEhw8fxgcffICPP/6YHlIqCBUA4c7hcKCsrAwmkwmnT5/GqVOnPObRWu6OCoAwV19fj9LSUuTn58NkMqGgoADt7e2iY5G7oAIgA1ZXV4fKykpUVFTg0qVLKCsrQ1lZGW7evCk6GukjKgCCjo4OdHd3w+l0orW1FQDQ1NT0zWhsbERTUxMaGhpQVVX1zbBYLIKTE7k0AOjbF0JUii4HJkTFqAAIUTEqAEJUjAqAEBWjAiBExagACFExKgBCVIwKgBAVowIgRMWoAAhRMSoAQlSMCoAQFaMCIETFqAAIUTEqAEJU7P8BPoyjuGFKQ2wAAAAASUVORK5CYII=;" parent="1" vertex="1">
          <mxGeometry x="161.99999999999997" y="737" width="66" height="66" as="geometry" />
        </mxCell>
        <mxCell id="TxX2gqwojOcQ7HW4MR1k-50" value="YouTube Live" style="shape=image;html=1;verticalAlign=top;verticalLabelPosition=bottom;labelBackgroundColor=#ffffff;imageAspect=0;aspect=fixed;image=https://cdn2.iconfinder.com/data/icons/social-media-2285/512/1_Youtube_colored_svg-128.png;dashed=1;fontColor=#000000;fillColor=none;" parent="1" vertex="1">
          <mxGeometry x="1530" y="180" width="70" height="70" as="geometry" />
        </mxCell>
        <mxCell id="TxX2gqwojOcQ7HW4MR1k-51" value="&lt;div&gt;Capture Card&lt;/div&gt;&lt;div&gt;Video Input&lt;br&gt;&lt;/div&gt;" style="shape=image;html=1;verticalAlign=top;verticalLabelPosition=bottom;labelBackgroundColor=#ffffff;imageAspect=0;aspect=fixed;image=https://cdn2.iconfinder.com/data/icons/boxicons-solid-vol-2/24/bxs-film-128.png;dashed=1;fontColor=#000000;fillColor=none;strokeWidth=0;" parent="1" vertex="1">
          <mxGeometry x="901" y="360" width="63" height="63" as="geometry" />
        </mxCell>
        <mxCell id="TxX2gqwojOcQ7HW4MR1k-53" value="" style="shape=image;html=1;verticalAlign=top;verticalLabelPosition=bottom;labelBackgroundColor=#ffffff;imageAspect=0;aspect=fixed;image=https://cdn4.iconfinder.com/data/icons/essential-app-2/16/volume-sound-speaker-mute-128.png;dashed=1;fontColor=#000000;fillColor=none;" parent="1" vertex="1">
          <mxGeometry x="415.65999999999997" y="140" width="49" height="49" as="geometry" />
        </mxCell>
        <mxCell id="TxX2gqwojOcQ7HW4MR1k-55" style="edgeStyle=orthogonalEdgeStyle;rounded=0;orthogonalLoop=1;jettySize=auto;html=1;fontColor=#000000;dashed=1;startArrow=classic;startFill=1;entryX=0;entryY=0;entryDx=0;entryDy=0;entryPerimeter=0;" parent="1" source="TxX2gqwojOcQ7HW4MR1k-54" target="TxX2gqwojOcQ7HW4MR1k-28" edge="1">
          <mxGeometry relative="1" as="geometry" />
        </mxCell>
        <mxCell id="TxX2gqwojOcQ7HW4MR1k-56" value="Bluetooth" style="edgeLabel;html=1;align=center;verticalAlign=middle;resizable=0;points=[];fontColor=#000000;" parent="TxX2gqwojOcQ7HW4MR1k-55" vertex="1" connectable="0">
          <mxGeometry x="-0.1841" relative="1" as="geometry">
            <mxPoint x="1" y="9" as="offset" />
          </mxGeometry>
        </mxCell>
        <mxCell id="TxX2gqwojOcQ7HW4MR1k-54" value="Gaming Headset" style="shape=image;html=1;verticalAlign=top;verticalLabelPosition=bottom;labelBackgroundColor=#ffffff;imageAspect=0;aspect=fixed;image=https://cdn1.iconfinder.com/data/icons/bootstrap-vol-3/16/headset-128.png;dashed=1;fontColor=#000000;fillColor=none;" parent="1" vertex="1">
          <mxGeometry x="650" y="325" width="98" height="98" as="geometry" />
        </mxCell>
        <mxCell id="TxX2gqwojOcQ7HW4MR1k-75" style="edgeStyle=orthogonalEdgeStyle;rounded=0;orthogonalLoop=1;jettySize=auto;html=1;fontColor=#000000;startArrow=ERmany;startFill=0;" parent="1" source="TxX2gqwojOcQ7HW4MR1k-63" target="TxX2gqwojOcQ7HW4MR1k-47" edge="1">
          <mxGeometry relative="1" as="geometry" />
        </mxCell>
        <mxCell id="TxX2gqwojOcQ7HW4MR1k-76" value="Audio" style="edgeLabel;html=1;align=center;verticalAlign=middle;resizable=0;points=[];fontColor=#000000;" parent="TxX2gqwojOcQ7HW4MR1k-75" vertex="1" connectable="0">
          <mxGeometry x="0.1053" y="1" relative="1" as="geometry">
            <mxPoint x="-1" y="5" as="offset" />
          </mxGeometry>
        </mxCell>
        <mxCell id="TxX2gqwojOcQ7HW4MR1k-63" value="&lt;div&gt;Headset Microphone&lt;/div&gt;&lt;div&gt;Audio Input&lt;br&gt;&lt;/div&gt;" style="shape=image;html=1;verticalAlign=top;verticalLabelPosition=bottom;labelBackgroundColor=#ffffff;imageAspect=0;aspect=fixed;image=https://cdn4.iconfinder.com/data/icons/ionicons/512/icon-mic-a-128.png;dashed=1;strokeWidth=0;fontColor=#000000;fillColor=none;" parent="1" vertex="1">
          <mxGeometry x="900" y="585" width="65" height="65" as="geometry" />
        </mxCell>
        <mxCell id="TxX2gqwojOcQ7HW4MR1k-67" style="edgeStyle=orthogonalEdgeStyle;rounded=0;orthogonalLoop=1;jettySize=auto;html=1;fontColor=#000000;entryX=0;entryY=0.75;entryDx=0;entryDy=0;startArrow=ERmany;startFill=0;" parent="1" target="TxX2gqwojOcQ7HW4MR1k-36" edge="1">
          <mxGeometry relative="1" as="geometry">
            <Array as="points">
              <mxPoint x="1250" y="440" />
              <mxPoint x="1320" y="440" />
            </Array>
            <mxPoint x="1250" y="490" as="sourcePoint" />
          </mxGeometry>
        </mxCell>
        <mxCell id="TxX2gqwojOcQ7HW4MR1k-68" value="Audio" style="edgeLabel;html=1;align=center;verticalAlign=middle;resizable=0;points=[];fontColor=#000000;" parent="TxX2gqwojOcQ7HW4MR1k-67" vertex="1" connectable="0">
          <mxGeometry x="-0.2571" y="-2" relative="1" as="geometry">
            <mxPoint x="-2" y="-70" as="offset" />
          </mxGeometry>
        </mxCell>
        <mxCell id="TxX2gqwojOcQ7HW4MR1k-92" style="edgeStyle=orthogonalEdgeStyle;rounded=0;jumpStyle=line;orthogonalLoop=1;jettySize=auto;html=1;fontColor=#000000;startArrow=ERmany;startFill=0;endArrow=classic;endFill=1;" parent="1" source="TxX2gqwojOcQ7HW4MR1k-64" target="TxX2gqwojOcQ7HW4MR1k-77" edge="1">
          <mxGeometry relative="1" as="geometry">
            <Array as="points">
              <mxPoint x="1320" y="493" />
              <mxPoint x="1320" y="750" />
              <mxPoint x="1140" y="750" />
              <mxPoint x="1140" y="819" />
            </Array>
          </mxGeometry>
        </mxCell>
        <mxCell id="TxX2gqwojOcQ7HW4MR1k-98" value="Audio" style="edgeLabel;html=1;align=center;verticalAlign=middle;resizable=0;points=[];fontColor=#000000;" parent="TxX2gqwojOcQ7HW4MR1k-92" vertex="1" connectable="0">
          <mxGeometry x="0.2449" y="1" relative="1" as="geometry">
            <mxPoint x="-181" y="-202" as="offset" />
          </mxGeometry>
        </mxCell>
        <mxCell id="TxX2gqwojOcQ7HW4MR1k-64" value="&lt;div&gt;HDMI Capture Card&lt;/div&gt;&lt;div&gt;Audio Input&lt;br&gt;&lt;/div&gt;" style="shape=image;html=1;verticalAlign=top;verticalLabelPosition=bottom;labelBackgroundColor=#ffffff;imageAspect=0;aspect=fixed;image=https://cdn4.iconfinder.com/data/icons/ionicons/512/icon-mic-a-128.png;dashed=1;strokeWidth=0;fontColor=#000000;fillColor=none;" parent="1" vertex="1">
          <mxGeometry x="901" y="460" width="65" height="65" as="geometry" />
        </mxCell>
        <mxCell id="TxX2gqwojOcQ7HW4MR1k-71" value="" style="endArrow=none;html=1;rounded=0;fontColor=#000000;entryX=-0.001;entryY=0.11;entryDx=0;entryDy=0;entryPerimeter=0;exitX=1;exitY=0.07;exitDx=0;exitDy=0;exitPerimeter=0;dashed=1;" parent="1" source="TxX2gqwojOcQ7HW4MR1k-28" target="TxX2gqwojOcQ7HW4MR1k-31" edge="1">
          <mxGeometry width="50" height="50" relative="1" as="geometry">
            <mxPoint x="820" y="660" as="sourcePoint" />
            <mxPoint x="870" y="610" as="targetPoint" />
          </mxGeometry>
        </mxCell>
        <mxCell id="TxX2gqwojOcQ7HW4MR1k-72" value="" style="endArrow=none;html=1;rounded=0;fontColor=#000000;entryX=0.023;entryY=0.938;entryDx=0;entryDy=0;entryPerimeter=0;exitX=1;exitY=0.5;exitDx=0;exitDy=0;exitPerimeter=0;dashed=1;" parent="1" source="TxX2gqwojOcQ7HW4MR1k-28" target="TxX2gqwojOcQ7HW4MR1k-31" edge="1">
          <mxGeometry width="50" height="50" relative="1" as="geometry">
            <mxPoint x="790" y="339.9000000000001" as="sourcePoint" />
            <mxPoint x="977.0999999999999" y="298.1600000000001" as="targetPoint" />
          </mxGeometry>
        </mxCell>
        <mxCell id="TxX2gqwojOcQ7HW4MR1k-77" value="&lt;div&gt;Headset Speakers&lt;/div&gt;&lt;div&gt;Audio Output&lt;br&gt;&lt;/div&gt;" style="shape=image;html=1;verticalAlign=top;verticalLabelPosition=bottom;labelBackgroundColor=#ffffff;imageAspect=0;aspect=fixed;image=https://cdn4.iconfinder.com/data/icons/essential-app-2/16/volume-sound-speaker-lound-128.png;dashed=1;strokeWidth=0;fontColor=#000000;fillColor=none;" parent="1" vertex="1">
          <mxGeometry x="1050" y="790" width="58" height="58" as="geometry" />
        </mxCell>
        <mxCell id="TxX2gqwojOcQ7HW4MR1k-94" style="edgeStyle=orthogonalEdgeStyle;rounded=0;jumpStyle=line;orthogonalLoop=1;jettySize=auto;html=1;fontColor=#000000;startArrow=ERmany;startFill=0;endArrow=classic;endFill=1;" parent="1" source="TxX2gqwojOcQ7HW4MR1k-80" target="TxX2gqwojOcQ7HW4MR1k-77" edge="1">
          <mxGeometry relative="1" as="geometry" />
        </mxCell>
        <mxCell id="qu0nNaPlwtPZptSTdnUQ-5" value="" style="group" vertex="1" connectable="0" parent="1">
          <mxGeometry x="1163" y="580" width="78" height="109" as="geometry" />
        </mxCell>
        <mxCell id="TxX2gqwojOcQ7HW4MR1k-47" value="" style="shape=image;html=1;verticalAlign=top;verticalLabelPosition=bottom;labelBackgroundColor=#ffffff;imageAspect=0;aspect=fixed;image=https://cdn1.iconfinder.com/data/icons/unicons-line-vol-3/24/discord-128.png;dashed=1;fontColor=#000000;fillColor=none;" parent="qu0nNaPlwtPZptSTdnUQ-5" vertex="1">
          <mxGeometry width="78" height="78" as="geometry" />
        </mxCell>
        <mxCell id="TxX2gqwojOcQ7HW4MR1k-80" value="&lt;div&gt;Discord Voice Chat&lt;/div&gt;&lt;div&gt;Audio Source&lt;br&gt;&lt;/div&gt;" style="shape=image;html=1;verticalAlign=top;verticalLabelPosition=bottom;labelBackgroundColor=#ffffff;imageAspect=0;aspect=fixed;image=https://cdn4.iconfinder.com/data/icons/ionicons/512/icon-mic-a-128.png;dashed=1;strokeWidth=0;fontColor=#000000;fillColor=none;" parent="qu0nNaPlwtPZptSTdnUQ-5" vertex="1">
          <mxGeometry x="6.5" y="44" width="65" height="65" as="geometry" />
        </mxCell>
        <mxCell id="qu0nNaPlwtPZptSTdnUQ-7" value="" style="endArrow=none;html=1;rounded=0;" edge="1" parent="1">
          <mxGeometry width="50" height="50" relative="1" as="geometry">
            <mxPoint x="800" y="952.4000000000001" as="sourcePoint" />
            <mxPoint x="800" y="40" as="targetPoint" />
          </mxGeometry>
        </mxCell>
        <mxCell id="qu0nNaPlwtPZptSTdnUQ-9" value="Hardware" style="text;html=1;align=center;verticalAlign=middle;resizable=0;points=[];autosize=1;strokeColor=none;fillColor=none;fontColor=#000000;fontSize=20;fontStyle=1" vertex="1" parent="1">
          <mxGeometry x="690" y="75.5" width="110" height="40" as="geometry" />
        </mxCell>
        <mxCell id="qu0nNaPlwtPZptSTdnUQ-11" style="edgeStyle=orthogonalEdgeStyle;rounded=0;orthogonalLoop=1;jettySize=auto;html=1;startArrow=classic;startFill=1;" edge="1" parent="1" source="qu0nNaPlwtPZptSTdnUQ-10" target="TxX2gqwojOcQ7HW4MR1k-49">
          <mxGeometry relative="1" as="geometry" />
        </mxCell>
        <mxCell id="qu0nNaPlwtPZptSTdnUQ-12" value="USB-C" style="edgeLabel;html=1;align=center;verticalAlign=middle;resizable=0;points=[];" vertex="1" connectable="0" parent="qu0nNaPlwtPZptSTdnUQ-11">
          <mxGeometry x="0.262" y="-2" relative="1" as="geometry">
            <mxPoint as="offset" />
          </mxGeometry>
        </mxCell>
        <mxCell id="qu0nNaPlwtPZptSTdnUQ-10" value="USB Dock" style="rounded=1;whiteSpace=wrap;html=1;" vertex="1" parent="1">
          <mxGeometry x="354" y="740" width="120" height="60" as="geometry" />
        </mxCell>
        <mxCell id="qu0nNaPlwtPZptSTdnUQ-17" value="" style="sketch=0;verticalLabelPosition=bottom;sketch=0;aspect=fixed;html=1;verticalAlign=top;strokeColor=none;fillColor=#000000;align=center;outlineConnect=0;pointerEvents=1;shape=mxgraph.citrix2.thin_client;" vertex="1" parent="1">
          <mxGeometry x="548" y="256" width="36.565" height="50" as="geometry" />
        </mxCell>
        <mxCell id="qu0nNaPlwtPZptSTdnUQ-18" value="" style="sketch=0;verticalLabelPosition=bottom;sketch=0;aspect=fixed;html=1;verticalAlign=top;strokeColor=none;fillColor=#000000;align=center;outlineConnect=0;pointerEvents=1;shape=mxgraph.citrix2.desktop;" vertex="1" parent="1">
          <mxGeometry x="535" y="196" width="50" height="38.66" as="geometry" />
        </mxCell>
        <mxCell id="qu0nNaPlwtPZptSTdnUQ-19" value="" style="verticalLabelPosition=bottom;sketch=0;html=1;fillColor=#282828;strokeColor=none;verticalAlign=top;pointerEvents=1;align=center;shape=mxgraph.cisco_safe.technology_icons.icon4;" vertex="1" parent="1">
          <mxGeometry x="474" y="325" width="50" height="49.5" as="geometry" />
        </mxCell>
        <mxCell id="qu0nNaPlwtPZptSTdnUQ-20" value="" style="verticalLabelPosition=bottom;sketch=0;html=1;fillColor=#282828;strokeColor=none;verticalAlign=top;pointerEvents=1;align=center;shape=mxgraph.cisco_safe.technology_icons.icon7;" vertex="1" parent="1">
          <mxGeometry x="397" y="310" width="34.5" height="50" as="geometry" />
        </mxCell>
        <mxCell id="qu0nNaPlwtPZptSTdnUQ-21" value="" style="shape=image;aspect=fixed;image=data:image/svg+xml,PHN2ZyB4bWxucz0iaHR0cDovL3d3dy53My5vcmcvMjAwMC9zdmciIGZpbGw9IiMwMDAwMDAiIGNsYXNzPSJiaSBiaS1wYyIgdmlld0JveD0iMCAwIDE2IDE2IiBpZD0iUGMtLVN0cmVhbWxpbmUtQm9vdHN0cmFwIiBoZWlnaHQ9IjE2IiB3aWR0aD0iMTYiPgogIDxkZXNjPgogICAgUGMgU3RyZWFtbGluZSBJY29uOiBodHRwczovL3N0cmVhbWxpbmVocS5jb20KICA8L2Rlc2M+CiAgPHBhdGggZD0iTTUgMGExIDEgMCAwIDAgLTEgMXYxNGExIDEgMCAwIDAgMSAxaDZhMSAxIDAgMCAwIDEgLTFWMWExIDEgMCAwIDAgLTEgLTF6bTAuNSAxNGEwLjUgMC41IDAgMSAxIDAgMSAwLjUgMC41IDAgMCAxIDAgLTFtMiAwYTAuNSAwLjUgMCAxIDEgMCAxIDAuNSAwLjUgMCAwIDEgMCAtMU01IDEuNWEwLjUgMC41IDAgMCAxIDAuNSAtMC41aDVhMC41IDAuNSAwIDAgMSAwIDFoLTVhMC41IDAuNSAwIDAgMSAtMC41IC0wLjVNNS41IDNoNWEwLjUgMC41IDAgMCAxIDAgMWgtNWEwLjUgMC41IDAgMCAxIDAgLTEiIHN0cm9rZS13aWR0aD0iMSI+PC9wYXRoPgo8L3N2Zz4=;" vertex="1" parent="1">
          <mxGeometry x="428" y="432.5" width="120" height="120" as="geometry" />
        </mxCell>
      </root>
    </mxGraphModel>
  </diagram>
</mxfile>
